<svg width="167" height="56" viewBox="0 0 167 56" fill="none" xmlns="http://www.w3.org/2000/svg">
<g id="iOS app store en" clip-path="url(#clip0_1234_41574)">
<path id="Vector" d="M153.49 0H13.4903C12.9843 0 12.4782 0 11.9621 0C11.537 0 11.1119 0.0101818 10.6869 0.0203636C9.75575 0.0407273 8.82465 0.101818 7.89354 0.264727C6.96243 0.427636 6.09205 0.712727 5.25203 1.14036C4.42213 1.568 3.65296 2.128 2.99511 2.78982C2.32714 3.45164 1.78063 4.22545 1.35556 5.06036C0.920364 5.91564 0.647105 6.79127 0.485173 7.728C0.313121 8.65455 0.262518 9.59127 0.232156 10.528C0.222035 10.9556 0.222035 11.3833 0.211914 11.8211V44.1789C0.211914 44.6167 0.211914 45.0342 0.232156 45.472C0.252397 46.4087 0.313121 47.3455 0.485173 48.272C0.647105 49.2087 0.920364 50.0844 1.35556 50.9396C1.78063 51.7745 2.32714 52.5382 2.99511 53.2C3.65296 53.872 4.41201 54.4218 5.25203 54.8495C6.10217 55.2873 6.96243 55.5622 7.89354 55.7353C8.81453 55.8982 9.75575 55.9593 10.6869 55.9796C11.1119 55.9796 11.537 55.9898 11.9621 55.9898C12.4681 55.9898 12.9741 55.9898 13.4903 55.9898H153.49C153.986 55.9898 154.502 55.9898 154.998 55.9898C155.423 55.9898 155.858 55.9898 156.284 55.9796C157.215 55.9491 158.146 55.8982 159.067 55.7353C159.998 55.5622 160.868 55.2873 161.718 54.8495C162.548 54.4218 163.307 53.872 163.965 53.2C164.633 52.5382 165.18 51.7745 165.605 50.9396C166.03 50.0945 166.313 49.2087 166.465 48.272C166.637 47.3455 166.688 46.4087 166.728 45.472C166.728 45.0342 166.728 44.6167 166.728 44.1789C166.738 43.6698 166.738 43.1607 166.738 42.6516V13.3484C166.738 12.8393 166.738 12.3302 166.728 11.8211C166.728 11.3935 166.728 10.9658 166.728 10.528C166.698 9.59127 166.637 8.65455 166.465 7.728C166.303 6.79127 166.03 5.91564 165.605 5.06036C165.18 4.22545 164.623 3.45164 163.965 2.78982C163.307 2.128 162.548 1.568 161.718 1.14036C160.858 0.702545 159.998 0.427636 159.067 0.264727C158.146 0.101818 157.215 0.0407273 156.284 0.0203636C155.858 0.0203636 155.423 0.0101818 154.998 0C154.502 0 153.986 0 153.49 0Z" fill="#B6B6B6"/>
<path id="Vector_2" d="M11.9722 54.7782C11.5471 54.7782 11.1322 54.7782 10.7172 54.768C9.93793 54.7477 9.01694 54.7069 8.1162 54.544C7.26606 54.3913 6.507 54.1368 5.80867 53.7804C5.07998 53.4139 4.43226 52.9353 3.8655 52.3549C3.28861 51.7848 2.81294 51.1331 2.4486 50.4C2.08425 49.6975 1.84135 48.9339 1.68954 48.0786C1.51749 47.1317 1.47701 46.1848 1.45676 45.4517C1.45676 45.1564 1.43652 44.1688 1.43652 44.1688V11.8211C1.43652 11.8211 1.44664 10.8539 1.45676 10.5688C1.47701 9.83567 1.51749 8.87858 1.68954 7.95203C1.84135 7.09676 2.08425 6.33312 2.4486 5.6204C2.82306 4.88731 3.28861 4.22549 3.8655 3.66549C4.44238 3.08512 5.10022 2.60658 5.8188 2.22985C6.53737 1.86331 7.2863 1.61894 8.1162 1.46622C9.05743 1.29312 9.99865 1.2524 10.7273 1.23203L11.9823 1.21167H154.998L156.273 1.23203C156.982 1.2524 157.933 1.29312 158.864 1.45603C159.704 1.60876 160.463 1.85312 161.192 2.21967C161.901 2.58622 162.558 3.06476 163.125 3.64512C163.692 4.21531 164.168 4.87712 164.552 5.61022C164.906 6.32294 165.159 7.08658 165.301 7.92149C165.463 8.80731 165.514 9.71349 165.544 10.5586C165.544 10.9557 165.544 11.3833 165.544 11.8008C165.554 12.3302 165.554 12.8291 165.554 13.328V42.6313C165.554 43.1404 165.554 43.6393 165.544 44.1382C165.544 44.5964 165.544 45.0139 165.544 45.4415C165.514 46.2662 165.463 47.1724 165.311 48.0379C165.17 48.8931 164.927 49.6568 164.562 50.3797C164.188 51.1026 163.712 51.7644 163.145 52.3244C162.568 52.9048 161.921 53.3833 161.202 53.76C160.484 54.1266 159.745 54.3709 158.885 54.5339C157.994 54.6968 157.073 54.7375 156.284 54.7579C155.879 54.7579 155.454 54.768 155.039 54.768H153.531H12.0228L11.9722 54.7782Z" fill="black"/>
<path id="Vector_3" d="M34.6933 28.4174C34.6629 24.5687 37.8307 22.6953 37.9724 22.6036C36.181 19.9665 33.3978 19.6102 32.4161 19.5796C30.0782 19.3353 27.8112 20.9847 26.6271 20.9847C25.4429 20.9847 23.5807 19.6 21.6072 19.6407C19.0669 19.6814 16.6885 21.1578 15.3829 23.4589C12.6908 28.1425 14.6947 35.0356 17.2755 38.8233C18.5608 40.6764 20.0688 42.7534 22.0424 42.6822C23.9754 42.6007 24.694 41.44 27.0218 41.44C29.3495 41.44 30.0074 42.6822 32.0214 42.6313C34.0961 42.6007 35.4017 40.768 36.6466 38.8945C38.1343 36.7665 38.7314 34.6691 38.7618 34.5673C38.7112 34.5469 34.7439 33.0298 34.7034 28.4073L34.6933 28.4174Z" fill="white"/>
<path id="Vector_4" d="M30.8872 17.0953C31.9296 15.792 32.6381 14.0102 32.4357 12.208C30.9378 12.2793 29.0553 13.2567 27.9724 14.5295C27.011 15.6596 26.1608 17.5026 26.3835 19.2335C28.0736 19.3556 29.8043 18.3782 30.8872 17.0953Z" fill="white"/>
<path id="Vector_5" d="M59.0935 37.9985H52.505L50.9261 42.7025H48.1328L54.3672 25.3221H57.2617L63.4961 42.7025H60.6623L59.0834 37.9985H59.0935ZM53.1831 35.8298H58.4053L55.8347 28.2036H55.7638L53.1932 35.8298H53.1831Z" fill="white"/>
<path id="Vector_6" d="M76.9774 36.3593C76.9774 40.2997 74.8824 42.8248 71.7147 42.8248C69.9233 42.8248 68.4963 42.0204 67.7473 40.6051H67.6866V46.8873H65.0957V30.016H67.5955V32.1237H67.6461C68.3647 30.7593 69.8929 29.8837 71.6539 29.8837C74.8521 29.8837 76.9572 32.4291 76.9572 36.3593H76.9774ZM74.3258 36.3593C74.3258 33.7935 73.0101 32.1033 70.9961 32.1033C68.9821 32.1033 67.6866 33.824 67.6866 36.3593C67.6866 38.8946 69.0124 40.6255 70.9961 40.6255C72.9797 40.6255 74.3258 38.9557 74.3258 36.3593Z" fill="white"/>
<path id="Vector_7" d="M90.8524 36.3593C90.8524 40.2997 88.7574 42.8248 85.5897 42.8248C83.7983 42.8248 82.3713 42.0204 81.6223 40.6051H81.5616V46.8873H78.9707V30.016H81.4705V32.1237H81.5211C82.2397 30.7593 83.7679 29.8837 85.5289 29.8837C88.7271 29.8837 90.8322 32.4291 90.8322 36.3593H90.8524ZM88.1907 36.3593C88.1907 33.7935 86.875 32.1033 84.861 32.1033C82.8469 32.1033 81.5515 33.824 81.5515 36.3593C81.5515 38.8946 82.8773 40.6255 84.861 40.6255C86.8446 40.6255 88.1907 38.9557 88.1907 36.3593Z" fill="white"/>
<path id="Vector_8" d="M100.012 37.8458C100.205 39.5665 101.864 40.7069 104.142 40.7069C106.419 40.7069 107.886 39.5767 107.886 38.0189C107.886 36.6647 106.945 35.8603 104.698 35.3105L102.462 34.7709C99.2836 33.997 97.8161 32.5105 97.8161 30.0872C97.8161 27.0836 100.417 25.0269 104.101 25.0269C107.785 25.0269 110.255 27.0836 110.335 30.0872H107.724C107.573 28.3563 106.145 27.3076 104.061 27.3076C101.976 27.3076 100.549 28.3665 100.549 29.9141C100.549 31.1461 101.46 31.869 103.686 32.4189L105.589 32.8872C109.131 33.7323 110.609 35.1679 110.609 37.7032C110.609 40.9512 108.038 42.9978 103.939 42.9978C100.103 42.9978 97.5226 41.0123 97.3506 37.8661H100.002L100.012 37.8458Z" fill="white"/>
<path id="Vector_9" d="M116.205 27.0225V30.0261H118.604V32.0829H116.205V39.0676C116.205 40.1571 116.681 40.656 117.734 40.656C117.997 40.656 118.422 40.6152 118.584 40.5949V42.6414C118.3 42.7127 117.723 42.7636 117.147 42.7636C114.596 42.7636 113.604 41.7963 113.604 39.3425V32.0727H111.772V30.016H113.604V27.0123H116.205V27.0225Z" fill="white"/>
<path id="Vector_10" d="M119.99 36.3593C119.99 32.368 122.328 29.8633 125.961 29.8633C129.595 29.8633 131.943 32.368 131.943 36.3593C131.943 40.3506 129.635 42.8553 125.961 42.8553C122.288 42.8553 119.99 40.3607 119.99 36.3593ZM129.311 36.3593C129.311 33.6204 128.067 32.0116 125.972 32.0116C123.877 32.0116 122.632 33.6407 122.632 36.3593C122.632 39.0778 123.877 40.7069 125.972 40.7069C128.067 40.7069 129.311 39.1084 129.311 36.3593Z" fill="white"/>
<path id="Vector_11" d="M134.078 30.016H136.548V32.1746H136.608C137.003 30.7389 138.157 29.8837 139.634 29.8837C140.009 29.8837 140.312 29.9346 140.525 29.9855V32.4189C140.323 32.3375 139.867 32.2662 139.361 32.2662C137.701 32.2662 136.669 33.3964 136.669 35.1782V42.6924H134.078V30.016Z" fill="white"/>
<path id="Vector_12" d="M152.437 38.976C152.093 41.2771 149.866 42.8553 147.012 42.8553C143.348 42.8553 141.071 40.3811 141.071 36.4204C141.071 32.4596 143.359 29.8633 146.901 29.8633C150.443 29.8633 152.579 32.2764 152.579 36.1149V37.0109H143.682V37.1636C143.682 39.3324 145.039 40.7578 147.073 40.7578C148.51 40.7578 149.633 40.0756 149.978 38.976H152.437ZM143.703 35.1884H149.998C149.937 33.2436 148.702 31.9709 146.911 31.9709C145.12 31.9709 143.834 33.2742 143.703 35.1884Z" fill="white"/>
<path id="Vector_13" d="M52.86 12.2284C55.3193 12.2284 56.7666 13.7557 56.7666 16.3826C56.7666 19.0095 55.3294 20.5877 52.86 20.5877H49.8643V12.2386H52.86V12.2284ZM51.1496 19.3964H52.7183C54.4591 19.3964 55.461 18.3069 55.461 16.3928C55.461 14.4786 54.4388 13.4095 52.7183 13.4095H51.1496V19.3964Z" fill="white"/>
<path id="Vector_14" d="M58.2236 17.4211C58.2236 15.3847 59.347 14.1527 61.1789 14.1527C63.0107 14.1527 64.1341 15.3949 64.1341 17.4211C64.1341 19.4473 63.0107 20.6996 61.1789 20.6996C59.347 20.6996 58.2236 19.4676 58.2236 17.4211ZM62.8589 17.4211C62.8589 16.0567 62.2517 15.2523 61.1789 15.2523C60.1061 15.2523 59.4988 16.0465 59.4988 17.4211C59.4988 18.7956 60.1061 19.5898 61.1789 19.5898C62.2517 19.5898 62.8589 18.7956 62.8589 17.4211Z" fill="white"/>
<path id="Vector_15" d="M71.9878 20.5774H70.7025L69.407 15.9345H69.3058L68.0205 20.5774H66.7453L65.0146 14.2749H66.2696L67.393 19.0807H67.4841L68.7694 14.2749H69.9536L71.2389 19.0807H71.3401L72.4534 14.2749H73.6881L71.9676 20.5774H71.9878Z" fill="white"/>
<path id="Vector_16" d="M75.166 14.2749H76.3603V15.2727H76.4513C76.755 14.5702 77.3824 14.1527 78.3237 14.1527C79.7203 14.1527 80.4895 14.9978 80.4895 16.4945V20.5774H79.2548V16.8102C79.2548 15.8022 78.8196 15.2931 77.8986 15.2931C76.9776 15.2931 76.4007 15.904 76.4007 16.8916V20.5774H75.166V14.2749Z" fill="white"/>
<path id="Vector_17" d="M82.4521 11.8109H83.6869V20.5775H82.4521V11.8109Z" fill="white"/>
<path id="Vector_18" d="M85.4082 17.4211C85.4082 15.3847 86.5316 14.1527 88.3635 14.1527C90.1953 14.1527 91.3187 15.3949 91.3187 17.4211C91.3187 19.4473 90.1953 20.6996 88.3635 20.6996C86.5316 20.6996 85.4082 19.4676 85.4082 17.4211ZM90.0536 17.4211C90.0536 16.0567 89.4464 15.2523 88.3736 15.2523C87.3008 15.2523 86.6935 16.0465 86.6935 17.4211C86.6935 18.7956 87.3008 19.5898 88.3736 19.5898C89.4464 19.5898 90.0536 18.7956 90.0536 17.4211Z" fill="white"/>
<path id="Vector_19" d="M92.624 18.7956C92.624 17.6654 93.464 17.0036 94.9518 16.912L96.6521 16.8102V16.2705C96.6521 15.6087 96.2169 15.232 95.3667 15.232C94.6785 15.232 94.2029 15.4865 94.0612 15.9345H92.8669C92.9884 14.8553 94.0106 14.1527 95.4275 14.1527C96.9962 14.1527 97.8868 14.9367 97.8868 16.2705V20.5774H96.6925V19.6916H96.5913C96.2169 20.3229 95.5287 20.6793 94.7089 20.6793C93.5045 20.6793 92.624 19.9462 92.624 18.7956ZM96.6521 18.256V17.7265L95.1238 17.8283C94.2636 17.8894 93.8689 18.1847 93.8689 18.7345C93.8689 19.2843 94.3547 19.6305 95.0328 19.6305C95.9639 19.6305 96.6521 19.0298 96.6521 18.256Z" fill="white"/>
<path id="Vector_20" d="M99.5059 17.4211C99.5059 15.4255 100.528 14.1629 102.107 14.1629C102.967 14.1629 103.686 14.5702 104.03 15.2727H104.121V11.8109H105.356V20.5775H104.172V19.5796H104.07C103.696 20.272 102.967 20.6793 102.107 20.6793C100.508 20.6793 99.5059 19.4167 99.5059 17.4211ZM100.791 17.4211C100.791 18.7549 101.419 19.5593 102.461 19.5593C103.504 19.5593 104.151 18.7447 104.151 17.4211C104.151 16.0975 103.504 15.2829 102.461 15.2829C101.419 15.2829 100.791 16.0975 100.791 17.4211Z" fill="white"/>
<path id="Vector_21" d="M110.477 17.4211C110.477 15.3847 111.6 14.1527 113.432 14.1527C115.264 14.1527 116.387 15.3949 116.387 17.4211C116.387 19.4473 115.264 20.6996 113.432 20.6996C111.6 20.6996 110.477 19.4676 110.477 17.4211ZM115.112 17.4211C115.112 16.0567 114.505 15.2523 113.432 15.2523C112.359 15.2523 111.752 16.0465 111.752 17.4211C111.752 18.7956 112.359 19.5898 113.432 19.5898C114.505 19.5898 115.112 18.7956 115.112 17.4211Z" fill="white"/>
<path id="Vector_22" d="M118.047 14.2749H119.241V15.2727H119.332C119.636 14.5702 120.263 14.1527 121.205 14.1527C122.601 14.1527 123.37 14.9978 123.37 16.4945V20.5774H122.136V16.8102C122.136 15.8022 121.7 15.2931 120.779 15.2931C119.858 15.2931 119.282 15.904 119.282 16.8916V20.5774H118.047V14.2749Z" fill="white"/>
<path id="Vector_23" d="M130.354 12.707V14.3055H131.71V15.3542H130.354V18.592C130.354 19.2539 130.627 19.539 131.245 19.539C131.437 19.539 131.548 19.5288 131.72 19.5084V20.547C131.518 20.5775 131.285 20.608 131.052 20.608C129.676 20.608 129.13 20.1193 129.13 18.9077V15.344H128.138V14.2953H129.13V12.6968H130.364L130.354 12.707Z" fill="white"/>
<path id="Vector_24" d="M133.4 11.8109H134.625V15.2829H134.726C135.03 14.5804 135.688 14.1527 136.639 14.1527C137.975 14.1527 138.795 15.008 138.795 16.5047V20.5775H137.56V16.8102C137.56 15.8022 137.094 15.2931 136.224 15.2931C135.212 15.2931 134.645 15.9345 134.645 16.8916V20.5775H133.411V11.8109H133.4Z" fill="white"/>
<path id="Vector_25" d="M146.01 18.8771C145.727 20.0073 144.725 20.6996 143.298 20.6996C141.506 20.6996 140.403 19.4574 140.403 17.4414C140.403 15.4254 141.527 14.1527 143.288 14.1527C145.049 14.1527 146.081 15.3542 146.081 17.3294V17.7673H141.658V17.8385C141.699 18.9483 142.336 19.6407 143.328 19.6407C144.077 19.6407 144.593 19.3658 144.816 18.8771H146.01ZM141.658 16.8407H144.826C144.796 15.8531 144.199 15.2116 143.288 15.2116C142.377 15.2116 141.739 15.8633 141.668 16.8407H141.658Z" fill="white"/>
</g>
<defs>
<clipPath id="clip0_1234_41574">
<rect width="166.526" height="56" fill="white" transform="translate(0.22168)"/>
</clipPath>
</defs>
</svg>
