<svg width="254" height="135" viewBox="0 0 254 135" fill="none" xmlns="http://www.w3.org/2000/svg">
<g clip-path="url(#clip0_137_219)">
<path d="M35.0176 97.4643C31.2007 98.137 27.3163 98.3387 23.2983 98.8758L11.0426 62.8495V100.422C7.22554 100.825 3.74321 101.363 0.126831 101.9V33.0735H10.3064L24.2357 72.1255V33.0735H35.0176V97.4643ZM56.1131 58.2788C60.2653 58.2788 66.6274 58.0771 70.4445 58.0771V68.831C65.6895 68.831 60.1314 68.831 56.1131 69.0327V85.03C62.4084 84.6269 68.7034 84.0886 75.0652 83.8869V94.2372L45.3978 96.5903V33.0735H75.0652V43.8278H56.1131V58.2788ZM114.912 43.828H103.795V93.2975C100.179 93.2975 96.5623 93.2975 93.0805 93.4316V43.828H81.9636V33.0735H114.912L114.912 43.828ZM132.324 57.5396H146.99V68.2935H132.324V92.6924H121.809V33.0735H151.745V43.8278H132.324V57.5396ZM169.157 83.2824C175.251 83.4162 181.412 83.8877 187.373 84.2232V94.843C177.796 94.2377 168.219 93.6338 158.442 93.4316V33.0735H169.157V83.2824ZM196.413 95.5824C199.829 95.7844 203.445 95.9861 206.927 96.3889V33.0735H196.413V95.5824ZM253.873 33.0735L240.278 65.8069L253.873 101.9C249.855 101.363 245.836 100.624 241.818 99.9513L234.117 80.0564L226.282 98.3387C222.397 97.666 218.647 97.4643 214.764 96.9266L228.559 65.4032L216.103 33.0735H227.621L234.653 51.1541L242.153 33.0735H253.873Z" fill="#D81F26"/>
</g>
<defs>
<clipPath id="clip0_137_219">
<rect width="254" height="68.9741" fill="white" transform="translate(0 33)"/>
</clipPath>
</defs>
</svg>
