<svg width="32" height="33" viewBox="0 0 32 33" fill="none" xmlns="http://www.w3.org/2000/svg">
<path d="M14.6667 24.5H17.3334V21.8334H14.6667V24.5ZM16 3.16669C14.2491 3.16669 12.5152 3.51156 10.8976 4.18163C9.2799 4.85169 7.81004 5.83382 6.57193 7.07193C4.07144 9.57241 2.66669 12.9638 2.66669 16.5C2.66669 20.0362 4.07144 23.4276 6.57193 25.9281C7.81004 27.1662 9.2799 28.1484 10.8976 28.8184C12.5152 29.4885 14.2491 29.8334 16 29.8334C19.5362 29.8334 22.9276 28.4286 25.4281 25.9281C27.9286 23.4276 29.3334 20.0362 29.3334 16.5C29.3334 14.7491 28.9885 13.0152 28.3184 11.3976C27.6484 9.7799 26.6662 8.31004 25.4281 7.07193C24.19 5.83382 22.7201 4.85169 21.1025 4.18163C19.4848 3.51156 17.751 3.16669 16 3.16669ZM16 27.1667C10.12 27.1667 5.33335 22.38 5.33335 16.5C5.33335 10.62 10.12 5.83335 16 5.83335C21.88 5.83335 26.6667 10.62 26.6667 16.5C26.6667 22.38 21.88 27.1667 16 27.1667ZM16 8.50002C14.5855 8.50002 13.229 9.06192 12.2288 10.0621C11.2286 11.0623 10.6667 12.4189 10.6667 13.8334H13.3334C13.3334 13.1261 13.6143 12.4478 14.1144 11.9477C14.6145 11.4476 15.2928 11.1667 16 11.1667C16.7073 11.1667 17.3855 11.4476 17.8856 11.9477C18.3857 12.4478 18.6667 13.1261 18.6667 13.8334C18.6667 16.5 14.6667 16.1667 14.6667 20.5H17.3334C17.3334 17.5 21.3334 17.1667 21.3334 13.8334C21.3334 12.4189 20.7715 11.0623 19.7713 10.0621C18.7711 9.06192 17.4145 8.50002 16 8.50002Z" fill="#33058D"/>
</svg>
