<?xml version="1.0" encoding="utf-8"?>
<!-- Generator: Adobe Illustrator 21.0.2, SVG Export Plug-In . SVG Version: 6.00 Build 0)  -->
<svg version="1.1" id="Layer_1" xmlns="http://www.w3.org/2000/svg" xmlns:xlink="http://www.w3.org/1999/xlink" x="0px" y="0px"
	 viewBox="0 0 1053.7 464.7" style="enable-background:new 0 0 1053.7 464.7;" xml:space="preserve">
<style type="text/css">
	.st0{fill:#33058D;}
	.st1{fill:none;}
</style>
<g>
	<path class="st0" d="M902.4,383.3c-83.4,0-151.3-67.9-151.3-151.3c0-83.4,67.9-151.3,151.3-151.3c83.4,0,151.3,67.9,151.3,151.3
		C1053.7,315.4,985.9,383.3,902.4,383.3 M902.4,112.8c-65.7,0-119.2,53.5-119.2,119.2c0,65.7,53.5,119.2,119.2,119.2
		c65.7,0,119.2-53.5,119.2-119.2C1021.7,166.3,968.2,112.8,902.4,112.8 M77.6,140.9c15.4-14.7,38-23,58.3-23
		c58.5,0,74.2,34.9,78.1,64.1c18.4-37.9,57.3-64.1,102.3-64.1c31.7,0,60.4,13,81,33.9l-8.7-28h79l29.1,105.8l28.2-105.8h69.8
		l28.1,105.5L652,123.8h79.4l-67.3,215.5h-76.7l-27.2-106.2l-27.6,106.2h-76.7l-27.5-88.2c-9.3,53.5-55.9,94.1-112,94.1
		c-44,0-82.2-25.1-101-61.7v55.8h-79.1V234.9c0-22,4.8-49.6-26.9-49.6c-19.9,0-29.7,16.3-29.7,37.1v117h-79V123.8h77.1L77.6,140.9
		L77.6,140.9z M316.3,275.2c24.1,0,43.7-19.6,43.7-43.7c0-24.1-19.6-43.7-43.7-43.7c-24.1,0-43.7,19.6-43.7,43.7
		C272.6,255.7,292.2,275.2,316.3,275.2 M300.3,367.6h32.1v97.1h-32.1V367.6z M300.3-0.7h32.1v97.1h-32.1V-0.7z M883,175.7h66.2V144
		H883c-28.7,0-52,23.8-52,52.5c0,13.9,5.5,26.2,14.4,35.2c-8.9,9.5-14.4,22.2-14.4,36.2c0,28.7,23.3,50.6,52,50.6h66.2v-31.7H883
		c-11.1,0-20-8.7-20-19.7c0-11.1,9-19.9,20-19.9h66.2v-31.7H883c-11.1,0-20-8.7-20-19.7C862.9,184.6,871.9,175.7,883,175.7z"/>
	<rect x="-64" y="-63.1" class="st1" width="1179.5" height="592.1"/>
</g>
</svg>
