<svg width="79" height="45" viewBox="0 0 79 45" fill="none" xmlns="http://www.w3.org/2000/svg">
<g clip-path="url(#clip0_1408_157)">
<path fill-rule="evenodd" clip-rule="evenodd" d="M7.426 13.6862C8.90725 12.2601 11.0798 11.4679 13.035 11.4679C18.6835 11.4679 20.2043 14.8349 20.5598 17.6673C22.3373 14.0031 26.0898 11.4679 30.4348 11.4679C33.4763 11.4679 36.261 12.7157 38.236 14.7359L37.3868 12.0224H45.0103L47.8148 22.2623L50.5403 12.0224H57.2553L59.961 22.2029L62.7655 12.0224H70.4088L63.9308 32.8587H56.5245L53.8978 22.599L51.2513 32.8587H43.845L41.1985 24.342C40.29 29.4916 35.8068 33.4331 30.415 33.4331C26.1688 33.4331 22.4952 31.0167 20.6782 27.4714V32.8785H13.0745V22.7773C13.0745 20.658 13.5288 17.9842 10.4675 17.9842C8.55175 17.9842 7.6235 19.5687 7.6235 21.5691V32.8785H0V12.0423H7.426V13.6862ZM30.4348 26.6791C32.7455 26.6791 34.6415 24.7975 34.6415 22.4604C34.6415 20.143 32.7653 18.2416 30.4348 18.2416C28.124 18.2416 26.228 20.1232 26.228 22.4604C26.2083 24.7777 28.1043 26.6791 30.4348 26.6791ZM28.8943 35.592H31.995V44.9802H28.8943V35.592ZM28.8943 0H31.995V9.3882H28.8943V0Z" fill="url(#paint0_linear_1408_157)"/>
<path d="M65.1157 37.9094C65.1157 41.6924 68.177 44.7822 71.969 44.7822C75.761 44.7822 78.8222 41.7122 78.8222 37.9094C78.8222 34.1066 75.761 31.0366 71.969 31.0366C68.177 31.0564 65.1157 34.1264 65.1157 37.9094Z" fill="#010101"/>
<path fill-rule="evenodd" clip-rule="evenodd" d="M68.3152 41.316V36.7209H66.5377V35.1364H71.4949H72.2257H73.4107L74.4179 38.8996L75.4449 35.1364H77.4002L75.4844 41.316H73.3712L72.0084 36.7209H70.2507V41.316H68.3152ZM64.8787 37.9093C64.8787 41.8111 68.0387 44.9999 71.9492 44.9999C75.8597 44.9999 79.0197 41.8309 79.0197 37.9093C79.0197 33.9876 75.8597 30.8186 71.9492 30.8186C68.0387 30.8186 64.8787 34.0074 64.8787 37.9093Z" fill="white"/>
</g>
<defs>
<linearGradient id="paint0_linear_1408_157" x1="35.2004" y1="0" x2="35.2004" y2="44.975" gradientUnits="userSpaceOnUse">
<stop stop-color="#FFC519"/>
<stop offset="0.5141" stop-color="#F8962A"/>
<stop offset="1" stop-color="#F16924"/>
</linearGradient>
<clipPath id="clip0_1408_157">
<rect width="79" height="45" fill="white"/>
</clipPath>
</defs>
</svg>
