<svg width="192" height="192" viewBox="0 0 192 192" fill="none" xmlns="http://www.w3.org/2000/svg">
<g clip-path="url(#clip0_1022_802)">
<path d="M160.5 0H31.22C13.9777 0 0 13.9777 0 31.22V160.5C0 177.742 13.9777 191.72 31.22 191.72H160.5C177.742 191.72 191.72 177.742 191.72 160.5V31.22C191.72 13.9777 177.742 0 160.5 0Z" fill="url(#paint0_radial_1022_802)"/>
<path d="M129.86 174.82H61.86C49.9391 174.799 38.5137 170.048 30.0919 161.611C21.67 153.175 16.94 141.741 16.94 129.82V61.8199C16.9691 49.9181 21.712 38.5125 30.1307 30.0994C38.5494 21.6864 49.9581 16.9511 61.86 16.9299H129.86C141.762 16.9511 153.171 21.6864 161.589 30.0994C170.008 38.5125 174.751 49.9181 174.78 61.8199V129.82C174.78 141.741 170.05 153.175 161.628 161.611C153.206 170.048 141.781 174.799 129.86 174.82ZM61.86 30.4999C53.5502 30.5104 45.5827 33.8114 39.7003 39.6807C33.8178 45.5501 30.499 53.5102 30.47 61.8199V129.82C30.47 138.149 33.7759 146.137 39.6615 152.03C45.5471 157.923 53.5312 161.239 61.86 161.25H129.86C138.189 161.239 146.173 157.923 152.058 152.03C157.944 146.137 161.25 138.149 161.25 129.82V61.8199C161.231 53.5032 157.917 45.5329 152.034 39.6549C146.15 33.7769 138.177 30.4705 129.86 30.4599L61.86 30.4999Z" fill="white"/>
<path d="M95.86 136.27C85.138 136.259 74.8586 131.993 67.2798 124.409C59.7011 116.824 55.4426 106.542 55.44 95.8199C55.4612 85.1101 59.7277 74.8455 67.3045 67.2762C74.8813 59.7069 85.1501 55.4505 95.86 55.4399C106.57 55.4505 116.839 59.7069 124.415 67.2762C131.992 74.8455 136.259 85.1101 136.28 95.8199C136.277 106.542 132.019 116.824 124.44 124.409C116.861 131.993 106.582 136.259 95.86 136.27ZM95.86 68.9699C88.7377 68.9779 81.9088 71.808 76.8688 76.8405C71.8288 81.8729 68.9885 88.6976 68.97 95.8199C68.97 102.954 71.8021 109.797 76.8441 114.845C81.886 119.892 88.7256 122.732 95.86 122.74C102.995 122.735 109.836 119.896 114.879 114.848C119.921 109.799 122.753 102.955 122.75 95.8199C122.731 88.6976 119.891 81.8729 114.851 76.8405C109.811 71.808 102.982 68.9779 95.86 68.9699Z" fill="white"/>
<path d="M147.72 53.1299C147.72 54.405 147.469 55.6677 146.981 56.8458C146.493 58.0238 145.778 59.0943 144.876 59.9959C143.974 60.8976 142.904 61.6128 141.726 62.1008C140.548 62.5888 139.285 62.8399 138.01 62.8399C135.435 62.8399 132.965 61.8169 131.144 59.9959C129.323 58.1749 128.3 55.7052 128.3 53.1299C128.3 50.5537 129.323 48.0829 131.143 46.2604C132.964 44.4378 135.434 43.4126 138.01 43.4099C139.286 43.4099 140.549 43.6614 141.728 44.15C142.907 44.6386 143.978 45.3547 144.88 46.2574C145.781 47.1602 146.496 48.2318 146.984 49.411C147.471 50.5902 147.721 51.8539 147.72 53.1299Z" fill="white"/>
</g>
<defs>
<radialGradient id="paint0_radial_1022_802" cx="0" cy="0" r="1" gradientUnits="userSpaceOnUse" gradientTransform="translate(30.93 189.14) scale(231.35)">
<stop stop-color="#FEC053"/>
<stop offset="0.33" stop-color="#F2203E"/>
<stop offset="0.65" stop-color="#B729A8"/>
<stop offset="1" stop-color="#5342D6"/>
</radialGradient>
<clipPath id="clip0_1022_802">
<rect width="191.72" height="191.72" fill="white"/>
</clipPath>
</defs>
</svg>
