<svg width="57" height="33" viewBox="0 0 57 33" fill="none" xmlns="http://www.w3.org/2000/svg">
<g clip-path="url(#clip0_2_530)">
<path fill-rule="evenodd" clip-rule="evenodd" d="M5.31 9.75C6.40228 8.74715 7.82723 8.18429 9.31 8.17C13.31 8.17 14.41 10.57 14.68 12.58C15.227 11.4525 16.0367 10.4727 17.041 9.72305C18.0453 8.97341 19.2148 8.47577 20.4514 8.27197C21.6879 8.06816 22.9553 8.16415 24.147 8.55185C25.3388 8.93956 26.4201 9.60765 27.3 10.5L26.7 8.57H32.14L34.14 15.85L36.08 8.57H40.9L42.84 15.83L44.84 8.57H50.31L45.68 23.41H40.39L38.52 16.1L36.62 23.41H31.34L29.44 17.33C29.1601 18.9452 28.3796 20.4317 27.2089 21.5792C26.0382 22.7268 24.5365 23.4774 22.916 23.725C21.2955 23.9726 19.6381 23.7047 18.1782 22.9591C16.7182 22.2135 15.5295 21.028 14.78 19.57V23.41H9.34V16.25C9.34 14.73 9.67 12.83 7.49 12.83C6.12 12.83 5.49 13.95 5.49 15.39V23.39H0V8.57H5.31V9.75ZM21.74 19C22.3333 19 22.9134 18.8241 23.4067 18.4944C23.9001 18.1648 24.2846 17.6962 24.5116 17.1481C24.7387 16.5999 24.7981 15.9967 24.6824 15.4147C24.5666 14.8328 24.2809 14.2982 23.8613 13.8787C23.4418 13.4591 22.9072 13.1734 22.3253 13.0576C21.7433 12.9419 21.1401 13.0013 20.5919 13.2284C20.0438 13.4554 19.5752 13.8399 19.2456 14.3333C18.9159 14.8266 18.74 15.4067 18.74 16C18.74 16.394 18.8176 16.7841 18.9684 17.1481C19.1191 17.512 19.3401 17.8427 19.6187 18.1213C19.8973 18.3999 20.228 18.6209 20.5919 18.7716C20.9559 18.9224 21.346 19 21.74 19V19ZM20.63 25.36H22.84V32.04H20.63V25.36ZM20.63 0H22.84V6.68H20.63V0Z" fill="url(#paint0_linear_2_530)"/>
<path d="M46.51 27.0099C46.508 27.9779 46.7934 28.9247 47.33 29.7304C47.8665 30.5361 48.6301 31.1644 49.5241 31.5357C50.418 31.9071 51.4021 32.0048 52.3516 31.8164C53.3011 31.628 54.1733 31.1621 54.8578 30.4776C55.5422 29.7932 56.0082 28.9209 56.1965 27.9714C56.3849 27.0219 56.2872 26.0379 55.9159 25.1439C55.5445 24.25 54.9162 23.4864 54.1105 22.9498C53.3048 22.4133 52.358 22.1279 51.39 22.1299C50.7488 22.1286 50.1136 22.2539 49.521 22.4987C48.9283 22.7435 48.3898 23.1029 47.9364 23.5563C47.483 24.0097 47.1236 24.5482 46.8788 25.1408C46.634 25.7335 46.5087 26.3687 46.51 27.0099Z" fill="white"/>
<path fill-rule="evenodd" clip-rule="evenodd" d="M48.79 29.4201V26.1401H47.5199V25.0101H52.43L53.15 27.6801L53.87 25.0101H55.2699L53.89 29.4201H52.37L51.37 26.1401H50.15V29.4201H48.79ZM46.34 27.0101C46.3281 28.0159 46.6163 29.0024 47.1677 29.8436C47.7191 30.6849 48.5087 31.3427 49.4357 31.7331C50.3627 32.1235 51.385 32.2288 52.3721 32.0354C53.3592 31.8421 54.2663 31.359 54.9776 30.6477C55.6888 29.9365 56.1719 29.0294 56.3653 28.0423C56.5586 27.0552 56.4533 26.0329 56.0629 25.1059C55.6725 24.1789 55.0147 23.3892 54.1735 22.8378C53.3322 22.2864 52.3457 21.9983 51.3399 22.0101C50.0139 22.0101 48.7421 22.5369 47.8044 23.4746C46.8667 24.4123 46.34 25.684 46.34 27.0101Z" fill="#231F20"/>
</g>
<defs>
<linearGradient id="paint0_linear_2_530" x1="25.15" y1="0" x2="25.15" y2="32.04" gradientUnits="userSpaceOnUse">
<stop stop-color="#FFC415"/>
<stop offset="0.51" stop-color="#F79528"/>
<stop offset="1" stop-color="#F26723"/>
</linearGradient>
<clipPath id="clip0_2_530">
<rect width="56.45" height="32.06" fill="white"/>
</clipPath>
</defs>
</svg>
