<svg width="24" height="24" viewBox="0 0 24 24" fill="none" xmlns="http://www.w3.org/2000/svg">
<path d="M0.320003 2.23C0.450003 1.93 0.710003 1.8 1.01 1.8H2.57C3.74 1.8 4.65 2.45 5 3.53C5.13 3.92 5.26 4.31 5.39 4.74C5.43 4.91 5.52 4.96 5.69 4.96C7.42 4.96 9.2 5 10.93 5.05C15 5.09 19.03 5.18 23.01 5.22C23.18 5.22 23.4 5.26 23.53 5.39C23.62 5.48 23.7 5.69 23.7 5.82C23.27 7.73 22.83 9.63 22.31 11.49C22.01 12.66 20.92 13.44 19.71 13.57C17.59 13.79 15.47 14 13.3 14.22C11.78 14.39 10.22 14.52 8.71 14.7C8.45 14.74 8.19 14.79 8.23 15.05C8.23 15.4 8.4 15.57 9.62 15.57C13 15.53 16.38 15.57 19.75 15.57C19.88 15.57 19.97 15.57 20.1 15.61C20.4 15.65 20.58 15.87 20.53 16.13C20.53 16.39 20.31 16.61 20.05 16.65H9.57C7.66 16.65 6.45 16.39 7.19 14.66C7.36 14.31 7.36 14.01 7.23 13.62C6.15 10.41 5.06 7.17 3.98 3.96C3.76 3.22 3.29 2.88 2.46 2.88H0.990003C0.640003 2.88 0.380003 2.79 0.300003 2.45V2.23H0.320003ZM5.86 6.04C5.86 6.1 5.87 6.14 5.9 6.17C6.72 8.6 7.5 11.02 8.33 13.45C8.37 13.58 8.46 13.62 8.59 13.58C9.46 13.49 10.32 13.41 11.19 13.32C14.01 13.02 16.82 12.76 19.59 12.45C20.54 12.36 21.11 11.84 21.37 10.93C21.67 9.72 21.98 8.46 22.28 7.25C22.37 6.9 22.45 6.6 22.5 6.25C16.96 6.21 11.41 6.12 5.87 6.03H5.86V6.04Z" fill="#4B4B4B" stroke="#4B4B4B" stroke-width="0.5" stroke-miterlimit="10"/>
<path d="M8.59 22.2C7.25 22.2 6.16 21.12 6.16 19.77C6.16 18.42 7.24 17.34 8.59 17.34C9.94 17.34 11.06 18.42 11.06 19.77C11.02 21.11 9.93 22.24 8.59 22.2ZM8.55 21.12C9.29 21.12 9.89 20.56 9.94 19.82C9.99 19.08 9.33 18.43 8.6 18.43C7.87 18.43 7.26 18.99 7.21 19.73C7.21 20.51 7.82 21.12 8.55 21.12Z" fill="#4B4B4B" stroke="#4B4B4B" stroke-width="0.5" stroke-miterlimit="10"/>
<path d="M21.37 19.77C21.37 21.11 20.29 22.2 18.94 22.2C17.59 22.2 16.51 21.12 16.51 19.77C16.51 18.42 17.59 17.34 18.94 17.34C20.29 17.34 21.37 18.47 21.37 19.77ZM18.9 21.12C19.64 21.12 20.24 20.51 20.24 19.78C20.24 19.05 19.63 18.44 18.9 18.44C18.17 18.44 17.51 19.05 17.56 19.78C17.56 20.56 18.17 21.12 18.9 21.12Z" fill="#4B4B4B" stroke="#4B4B4B" stroke-width="0.5" stroke-miterlimit="10"/>
</svg>
