<svg width="40" height="40" viewBox="0 0 40 40" fill="none" xmlns="http://www.w3.org/2000/svg">
<g clip-path="url(#clip0_1043_715)">
<path d="M40 20C40 31.0457 31.0457 40 20 40C8.9543 40 0 31.0457 0 20C0 8.9543 8.9543 0 20 0C31.0457 0 40 8.9543 40 20Z" fill="#FFC000"/>
<path d="M20.0073 22.6405C19.8651 22.6405 19.794 22.5694 19.794 22.4272L19.602 12.8698C19.602 12.7276 19.6731 12.6565 19.8153 12.6565H21.4366C21.5788 12.6565 21.65 12.7276 21.65 12.8698L21.4793 22.4272C21.4793 22.5694 21.4082 22.6405 21.266 22.6405H20.0073ZM20.5406 27.5258C20.1424 27.5258 19.8153 27.3978 19.5593 27.1418C19.3033 26.8858 19.1753 26.5587 19.1753 26.1605C19.1753 25.7623 19.3033 25.4352 19.5593 25.1792C19.8153 24.9232 20.1424 24.7952 20.5406 24.7952C20.9388 24.7952 21.266 24.9232 21.522 25.1792C21.778 25.4352 21.906 25.7623 21.906 26.1605C21.906 26.5587 21.778 26.8858 21.522 27.1418C21.266 27.3978 20.9388 27.5258 20.5406 27.5258Z" fill="#0B0B0B"/>
</g>
<defs>
<clipPath id="clip0_1043_715">
<rect width="40" height="40" fill="white"/>
</clipPath>
</defs>
</svg>
