<svg width="53" height="39" viewBox="0 0 53 39" fill="none" xmlns="http://www.w3.org/2000/svg">
<g id="Group">
<g id="Group 2">
<path id="Combined Shape" fill-rule="evenodd" clip-rule="evenodd" d="M7.44186 1C4.4364 1 2 3.4364 2 6.44186V23.5581C2 26.5636 4.4364 29 7.44186 29H12V36L19 29H46.5581C49.5636 29 52 26.5636 52 23.5581V6.44186C52 3.4364 49.5636 1 46.5581 1H7.44186Z" fill="white"/>
<g id="Shape">
<path fill-rule="evenodd" clip-rule="evenodd" d="M10.59 29.3151V38L19.8823 29.3262H45.9362C49.2838 29.3262 52 26.7764 52 23.6587V6.66747C52 3.53867 49.2719 1 45.9362 1H7.06377C3.71619 1 1 3.53867 1 6.66747V23.6476C1 26.7764 3.7281 29.3151 7.06377 29.3151H10.59ZM2.01261 6.66747C2.01261 4.06199 4.2761 1.94643 7.06377 1.94643H45.9243C48.712 1.94643 50.9755 4.06199 50.9755 6.66747V23.6587C50.9755 26.2642 48.712 28.3798 45.9243 28.3798H19.4653L11.6027 35.7286V28.3798H7.06377C4.2761 28.3798 2.01261 26.2642 2.01261 23.6587V6.66747Z" fill="#0B0B0B"/>
<path d="M10.59 38H10.2985V38.6709L10.789 38.2131L10.59 38ZM10.59 29.3151H10.8816V29.0235H10.59V29.3151ZM19.8823 29.3262V29.0347H19.7674L19.6833 29.1131L19.8823 29.3262ZM19.4653 28.3798V28.0882H19.3503L19.2662 28.1668L19.4653 28.3798ZM11.6027 35.7286H11.3111V36.4001L11.8017 35.9415L11.6027 35.7286ZM11.6027 28.3798H11.8942V28.0882H11.6027V28.3798ZM10.8816 38V29.3151H10.2985V38H10.8816ZM19.6833 29.1131L10.3911 37.7869L10.789 38.2131L20.0812 29.5393L19.6833 29.1131ZM45.9362 29.0347H19.8823V29.6177H45.9362V29.0347ZM51.7085 23.6587C51.7085 26.5975 49.1413 29.0347 45.9362 29.0347V29.6177C49.4263 29.6177 52.2915 26.9553 52.2915 23.6587H51.7085ZM51.7085 6.66747V23.6587H52.2915V6.66747H51.7085ZM45.9362 1.29153C49.1301 1.29153 51.7085 3.71828 51.7085 6.66747H52.2915C52.2915 3.35906 49.4137 0.708472 45.9362 0.708472V1.29153ZM7.06377 1.29153H45.9362V0.708472H7.06377V1.29153ZM1.29153 6.66747C1.29153 3.71792 3.85832 1.29153 7.06377 1.29153V0.708472C3.57405 0.708472 0.708472 3.35942 0.708472 6.66747H1.29153ZM1.29153 23.6476V6.66747H0.708472V23.6476H1.29153ZM7.06377 29.0235C3.86985 29.0235 1.29153 26.5968 1.29153 23.6476H0.708472C0.708472 26.956 3.58635 29.6066 7.06377 29.6066V29.0235ZM10.59 29.0235H7.06377V29.6066H10.59V29.0235ZM7.06377 1.65491C4.13397 1.65491 1.72109 3.88274 1.72109 6.66747H2.30414C2.30414 4.24124 4.41824 2.23796 7.06377 2.23796V1.65491ZM45.9243 1.65491H7.06377V2.23796H45.9243V1.65491ZM51.267 6.66747C51.267 3.88274 48.8541 1.65491 45.9243 1.65491V2.23796C48.5699 2.23796 50.6839 4.24124 50.6839 6.66747H51.267ZM51.267 23.6587V6.66747H50.6839V23.6587H51.267ZM45.9243 28.6713C48.8541 28.6713 51.267 26.4435 51.267 23.6587H50.6839C50.6839 26.085 48.5699 28.0882 45.9243 28.0882V28.6713ZM19.4653 28.6713H45.9243V28.0882H19.4653V28.6713ZM11.8017 35.9415L19.6644 28.5928L19.2662 28.1668L11.4036 35.5156L11.8017 35.9415ZM11.3111 28.3798V35.7286H11.8942V28.3798H11.3111ZM7.06377 28.6713H11.6027V28.0882H7.06377V28.6713ZM1.72109 23.6587C1.72109 26.4435 4.13397 28.6713 7.06377 28.6713V28.0882C4.41824 28.0882 2.30414 26.085 2.30414 23.6587H1.72109ZM1.72109 6.66747V23.6587H2.30414V6.66747H1.72109Z" fill="black"/>
</g>
</g>
</g>
</svg>
