<svg width="36" height="36" viewBox="0 0 36 36" fill="none" xmlns="http://www.w3.org/2000/svg">
<path d="M0.479951 3.345C0.674951 2.895 1.06495 2.7 1.51495 2.7H3.85495C5.60995 2.7 6.97495 3.675 7.49995 5.295C7.69495 5.88 7.88995 6.465 8.08495 7.11C8.14495 7.365 8.27995 7.44 8.53495 7.44C11.13 7.44 13.8 7.5 16.395 7.575C22.5 7.635 28.545 7.77 34.515 7.83C34.77 7.83 35.1 7.89 35.295 8.085C35.43 8.22 35.55 8.535 35.55 8.73C34.905 11.595 34.245 14.445 33.465 17.235C33.0149 18.99 31.38 20.16 29.565 20.355C26.385 20.685 23.205 21 19.95 21.33C17.67 21.585 15.33 21.78 13.065 22.05C12.675 22.11 12.285 22.185 12.3449 22.575C12.3449 23.1 12.6 23.355 14.43 23.355C19.5 23.295 24.57 23.355 29.625 23.355C29.82 23.355 29.955 23.355 30.15 23.415C30.6 23.475 30.87 23.805 30.795 24.195C30.795 24.585 30.465 24.915 30.075 24.975H14.3549C11.49 24.975 9.67495 24.585 10.785 21.99C11.04 21.465 11.04 21.015 10.845 20.43C9.22495 15.615 7.58995 10.755 5.96995 5.94C5.63995 4.83 4.93495 4.32 3.68995 4.32H1.48495C0.959951 4.32 0.569951 4.185 0.449951 3.675V3.345H0.479951ZM8.78995 9.06C8.78995 9.15 8.80495 9.21 8.84995 9.255C10.08 12.9 11.25 16.53 12.495 20.175C12.555 20.37 12.69 20.43 12.885 20.37C14.19 20.235 15.4799 20.115 16.785 19.98C21.0149 19.53 25.23 19.14 29.385 18.675C30.81 18.54 31.665 17.76 32.055 16.395C32.505 14.58 32.97 12.69 33.42 10.875C33.555 10.35 33.675 9.9 33.75 9.375C25.44 9.315 17.115 9.18 8.80495 9.045H8.78995V9.06Z" fill="#0B0B0B"/>
<path d="M8.78995 9.06C8.78995 9.15 8.80495 9.21 8.84995 9.255C10.08 12.9 11.25 16.53 12.495 20.175C12.555 20.37 12.69 20.43 12.885 20.37C14.19 20.235 15.4799 20.115 16.785 19.98C21.0149 19.53 25.23 19.14 29.385 18.675C30.81 18.54 31.665 17.76 32.055 16.395C32.505 14.58 32.97 12.69 33.42 10.875C33.555 10.35 33.675 9.9 33.75 9.375C25.44 9.315 17.115 9.18 8.80495 9.045H8.78995V9.06Z" fill="white"/>
<path d="M12.885 33.3C10.875 33.3 9.23999 31.68 9.23999 29.655C9.23999 27.63 10.86 26.01 12.885 26.01C14.91 26.01 16.59 27.63 16.59 29.655C16.53 31.665 14.895 33.36 12.885 33.3ZM12.825 31.68C13.935 31.68 14.835 30.84 14.91 29.73C14.985 28.62 13.995 27.645 12.9 27.645C11.805 27.645 10.89 28.485 10.815 29.595C10.815 30.765 11.73 31.68 12.825 31.68Z" fill="#0B0B0B"/>
<path d="M12.825 31.68C13.935 31.68 14.835 30.84 14.91 29.73C14.985 28.62 13.995 27.645 12.9 27.645C11.805 27.645 10.89 28.485 10.815 29.595C10.815 30.765 11.73 31.68 12.825 31.68Z" fill="white"/>
<path d="M32.055 29.655C32.055 31.665 30.435 33.3 28.41 33.3C26.385 33.3 24.765 31.68 24.765 29.655C24.765 27.63 26.385 26.01 28.41 26.01C30.435 26.01 32.055 27.705 32.055 29.655ZM28.35 31.68C29.46 31.68 30.36 30.765 30.36 29.67C30.36 28.575 29.445 27.66 28.35 27.66C27.255 27.66 26.265 28.575 26.34 29.67C26.34 30.84 27.255 31.68 28.35 31.68Z" fill="#0B0B0B"/>
<path d="M28.35 31.68C29.46 31.68 30.36 30.765 30.36 29.67C30.36 28.575 29.445 27.66 28.35 27.66C27.255 27.66 26.265 28.575 26.34 29.67C26.34 30.84 27.255 31.68 28.35 31.68Z" fill="white"/>
</svg>
