<?xml version="1.0" encoding="utf-8"?>
<!-- Generator: Adobe Illustrator 25.4.1, SVG Export Plug-In . SVG Version: 6.00 Build 0)  -->
<svg version="1.1" id="Layer_1" xmlns="http://www.w3.org/2000/svg" xmlns:xlink="http://www.w3.org/1999/xlink" x="0px" y="0px"
	 viewBox="0 0 24 24" style="enable-background:new 0 0 24 24;" xml:space="preserve">
<style type="text/css">
	.st0{fill:#616161;}
</style>
<g>
	<path class="st0" d="M21.8,11.7l-3.5-4.4C18.1,7.1,17.8,7,17.5,7h-11C6.2,7,5.9,7.1,5.7,7.4l-3.5,4.4C2.1,11.9,2,12.1,2,12.4V18
		c0,0.6,0.4,1,1,1h18c0.6,0,1-0.4,1-1v-5.6C22,12.1,21.9,11.9,21.8,11.7z M20,16.5c0,0.3-0.2,0.5-0.5,0.5h-15C4.2,17,4,16.8,4,16.5
		v-3C4,13.2,4.2,13,4.5,13h15c0.3,0,0.5,0.2,0.5,0.5V16.5z"/>
	<path class="st0" d="M13,14H7c-0.6,0-1,0.4-1,1c0,0.6,0.4,1,1,1h6c0.6,0,1-0.4,1-1C14,14.4,13.6,14,13,14z"/>
	<circle class="st0" cx="17" cy="15" r="1"/>
</g>
</svg>
