<?xml version="1.0" encoding="utf-8"?>
<!-- Generator: Adobe Illustrator 25.4.1, SVG Export Plug-In . SVG Version: 6.00 Build 0)  -->
<svg version="1.1" id="Layer_1" xmlns="http://www.w3.org/2000/svg" xmlns:xlink="http://www.w3.org/1999/xlink" x="0px" y="0px"
	 viewBox="0 0 24 24" style="enable-background:new 0 0 24 24;" xml:space="preserve">
<style type="text/css">
	.st0{fill:#616161;}
</style>
<g>
	<path class="st0" d="M8.5,9.5c0,1.9,1.6,3.5,3.5,3.5s3.5-1.6,3.5-3.5S13.9,6,12,6S8.5,7.6,8.5,9.5z M13.5,9.5
		c0,0.8-0.7,1.5-1.5,1.5s-1.5-0.7-1.5-1.5S11.2,8,12,8S13.5,8.7,13.5,9.5z"/>
	<path class="st0" d="M20,12c0,1.8-0.6,3.5-1.6,4.8c-1.2-1.4-3.5-2.3-6.4-2.3s-5.1,1-6.4,2.3c-1-1.3-1.6-3-1.6-4.8c0-4.4,3.6-8,8-8
		c2.6,0,4.9,1.2,6.4,3.1L16.5,9h5V4l-1.7,1.7C18,3.5,15.1,2,12,2C6.5,2,2,6.5,2,12s4.5,10,10,10s10-4.5,10-10H20z M12,20
		c-1.9,0-3.6-0.7-5-1.8c0.6-1,2.5-1.7,5-1.7s4.4,0.7,5,1.7C15.6,19.3,13.9,20,12,20z"/>
</g>
</svg>
