<svg width="24" height="24" viewBox="0 0 24 24" fill="none" xmlns="http://www.w3.org/2000/svg">
<path d="M19.71 2.85059V2.85156C20.1321 2.84285 20.553 2.89937 20.9531 3.02051L20.9541 3.02148C21.5881 3.22023 22.141 3.58828 22.5332 4.0791V4.08008C22.9254 4.57124 23.1381 5.16048 23.1387 5.7666C23.1424 8.86922 23.1108 11.9647 23.1494 15.0557L23.1484 15.208C23.1357 15.5625 23.0524 15.9126 22.9023 16.2412C22.7309 16.6166 22.4759 16.9563 22.1543 17.2402C21.8327 17.524 21.4505 17.7469 21.0312 17.8955C20.6643 18.0256 20.2745 18.0965 19.8809 18.1064H10.9727C10.848 18.1038 10.728 18.1412 10.6348 18.208L10.6328 18.21C9.30884 19.1164 7.98337 20.0238 6.6582 20.9346L6.65918 20.9355C6.39933 21.1157 6.08443 21.2323 5.72266 21.0801L5.72168 21.0791C5.56299 21.0105 5.42849 20.8991 5.33984 20.7568V20.7559C5.25441 20.6183 5.21686 20.4598 5.23242 20.3008V18.1514C5.23242 18.1354 5.23048 18.1241 5.22949 18.1162C5.21543 18.1139 5.19443 18.1114 5.16309 18.1113C4.62771 18.1405 4.09004 18.1234 3.55859 18.0586L3.55371 18.0576C2.89366 17.9535 2.28356 17.6714 1.80762 17.2471C1.33585 16.8264 1.01993 16.2847 0.902344 15.6953L0.849609 15.6777V5.30078L0.908203 5.2666C0.908418 5.26089 0.908744 5.25297 0.90918 5.24121C0.909859 5.22298 0.911175 5.19197 0.919922 5.15918V5.1582C1.31397 3.72978 2.61079 2.85059 4.27148 2.85059H19.71ZM4.30469 4.34375C3.72498 4.34375 3.27614 4.50047 2.97461 4.76562C2.67557 5.02869 2.50493 5.4128 2.50488 5.90527V15.1494C2.50909 15.2623 2.52562 15.3747 2.55273 15.4854H2.55176C2.63229 15.8059 2.83924 16.0954 3.14062 16.3008C3.40469 16.4807 3.72569 16.5847 4.05957 16.5986H6.01172C6.12182 16.5953 6.23185 16.6127 6.33496 16.6484L6.41211 16.6787C6.48704 16.7131 6.55627 16.7582 6.61719 16.8125C6.69859 16.8849 6.76383 16.9733 6.80664 17.0713C6.84827 17.1668 6.86729 17.2695 6.86328 17.373V18.9043C7.35601 18.5716 7.84908 18.2385 8.34082 17.9033L9.84766 16.8691C10.0966 16.6906 10.4061 16.5975 10.7217 16.6025H19.7246C20.0171 16.6137 20.3076 16.5609 20.5713 16.4512C20.9074 16.2963 21.1344 16.0971 21.2783 15.8623C21.4227 15.6266 21.491 15.344 21.4893 15.0137V5.91797C21.4963 5.76424 21.4808 5.61034 21.4434 5.45996C21.3347 5.09914 21.1302 4.82376 20.8477 4.63672C20.5637 4.44873 20.192 4.34375 19.7412 4.34375H4.30469Z" fill="#4A4A4A" stroke="#4A4A4A" stroke-width="0.3"/>
</svg>
