<svg width="40" height="40" viewBox="0 0 40 40" fill="none" xmlns="http://www.w3.org/2000/svg">
<g clip-path="url(#clip0_14619_326)">
<path d="M34.8964 33.6494L32.9003 35.6465L27.2606 30.0068L27.1083 30.0674C24.9038 30.9393 22.5013 31.417 19.9999 31.417C11.8078 31.417 4.80557 26.3425 1.93542 19.166C3.20599 15.9645 5.31338 13.2 7.97058 11.1133L8.19226 10.9395L3.703 6.44922L5.70007 4.4375L34.8964 33.6494ZM10.0321 13.084C7.98717 14.6388 6.26033 16.6353 5.07507 19.0566L5.02136 19.167L5.07507 19.2764C7.86684 24.9783 13.5873 28.583 19.9999 28.583C21.6079 28.583 23.1637 28.3466 24.6493 27.9414L25.0643 27.8281L23.0077 25.7705L22.8524 25.8369C21.9826 26.2074 21.0153 26.417 19.9999 26.417C16.0048 26.417 12.7501 23.1621 12.7499 19.167C12.7499 18.1519 12.9598 17.1845 13.3309 16.2969L13.3954 16.1416L10.2059 12.9521L10.0321 13.084ZM21.7128 28.2422C21.604 28.2536 21.4949 28.2622 21.3856 28.2715C21.4949 28.2622 21.604 28.2536 21.7128 28.2422ZM22.2489 28.1768C22.1499 28.1903 22.0505 28.202 21.951 28.2139C22.0505 28.202 22.1499 28.1903 22.2489 28.1768ZM22.7968 28.0928C22.7208 28.1056 22.6445 28.117 22.5682 28.1289C22.6445 28.117 22.7208 28.1056 22.7968 28.0928ZM23.3534 27.9893C23.268 28.0065 23.1824 28.023 23.0966 28.0391C23.1824 28.023 23.268 28.0065 23.3534 27.9893ZM23.9149 27.8672C23.8224 27.8889 23.7296 27.9094 23.6366 27.9297C23.7296 27.9094 23.8224 27.8889 23.9149 27.8672ZM24.5829 27.7002C24.4901 27.7255 24.3969 27.7505 24.3036 27.7744C24.2483 27.7886 24.1921 27.7998 24.1366 27.8135C24.2858 27.7766 24.435 27.7405 24.5829 27.7002ZM19.9999 6.91699C28.1919 6.91699 35.1941 11.9906 38.0643 19.167C36.9567 21.9498 35.2242 24.3956 33.0428 26.3721L31.0497 24.3789C32.6349 22.9731 33.9664 21.2568 34.9247 19.2754L34.9784 19.166L34.9247 19.0566C32.1329 13.3547 26.4124 9.75 19.9999 9.75C18.891 9.75 17.8167 9.89103 16.7655 10.0957L14.4032 7.73242C16.1796 7.20175 18.054 6.917 19.9999 6.91699ZM30.8719 24.2021C30.8151 24.2525 30.7576 24.302 30.7001 24.3516C30.7928 24.2717 30.8844 24.1904 30.9755 24.1084C30.9409 24.1395 30.9067 24.1714 30.8719 24.2021ZM31.2382 23.8662C31.1767 23.924 31.1149 23.9813 31.0526 24.0381C31.1149 23.9813 31.1767 23.924 31.2382 23.8662ZM31.5604 23.5557C31.4887 23.6269 31.4156 23.6968 31.3427 23.7666C31.4156 23.6968 31.4887 23.6269 31.5604 23.5557ZM15.5995 18.9502C15.5995 18.9745 15.5978 18.9941 15.5936 19.0273V19.0303C15.5895 19.0634 15.5829 19.1098 15.5829 19.167C15.5831 21.6049 17.562 23.583 19.9999 23.583C20.0979 23.583 20.1907 23.5603 20.2518 23.5449L20.6893 23.4355L15.5995 18.3467V18.9502ZM31.8124 23.2998C31.752 23.3625 31.6911 23.4247 31.6298 23.4863C31.6911 23.4247 31.752 23.3625 31.8124 23.2998ZM19.9999 23.333L19.8778 23.3311C19.8683 23.3308 19.8589 23.3294 19.8495 23.3291C19.8994 23.3309 19.9495 23.333 19.9999 23.333ZM19.7128 23.3223C19.6837 23.3203 19.6548 23.318 19.6259 23.3154C19.6548 23.318 19.6837 23.3203 19.7128 23.3223ZM19.5253 23.3047C19.4877 23.3004 19.4502 23.2963 19.413 23.291C19.4502 23.2963 19.4877 23.3004 19.5253 23.3047ZM19.3192 23.2764C19.2878 23.2712 19.2566 23.2656 19.2255 23.2598C19.2566 23.2656 19.2878 23.2712 19.3192 23.2764ZM19.0956 23.2334C19.076 23.2291 19.0565 23.2243 19.037 23.2197C19.0565 23.2243 19.076 23.2291 19.0956 23.2334ZM18.9237 23.1914C18.8768 23.1789 18.8303 23.1655 18.7841 23.1514C18.8303 23.1655 18.8768 23.1789 18.9237 23.1914ZM32.0887 23.0059C32.0381 23.061 31.9868 23.1155 31.9354 23.1699C31.9868 23.1155 32.0381 23.061 32.0887 23.0059ZM18.7499 23.1406C18.6963 23.1238 18.6433 23.1058 18.5907 23.0869C18.6433 23.1058 18.6963 23.1238 18.7499 23.1406ZM18.5546 23.0742C18.5158 23.0599 18.4775 23.0447 18.4393 23.0293C18.4775 23.0447 18.5158 23.0599 18.5546 23.0742ZM18.3397 22.9883C18.3141 22.9771 18.2889 22.9648 18.2635 22.9531C18.2889 22.9648 18.3141 22.9771 18.3397 22.9883ZM18.1805 22.9141C18.1358 22.8923 18.0915 22.87 18.0477 22.8467C18.0915 22.87 18.1358 22.8923 18.1805 22.9141ZM32.3612 22.7012C32.3125 22.757 32.2631 22.8121 32.2137 22.8672C32.2631 22.8121 32.3125 22.757 32.3612 22.7012ZM18.0038 22.8242C17.9632 22.802 17.9234 22.7784 17.8837 22.7549C17.9234 22.7784 17.9632 22.802 18.0038 22.8242ZM17.826 22.7207C17.7808 22.693 17.7363 22.6642 17.6923 22.6348C17.7363 22.6642 17.7808 22.693 17.826 22.7207ZM17.5048 22.5029C17.4663 22.4741 17.4289 22.4441 17.3915 22.4141C17.4289 22.4441 17.4663 22.4741 17.5048 22.5029ZM32.6053 22.4141C32.5703 22.4562 32.5353 22.4983 32.4999 22.54C32.5353 22.4983 32.5703 22.4562 32.6053 22.4141ZM17.1991 22.25C17.2464 22.293 17.2944 22.3352 17.3436 22.376C17.2431 22.2927 17.1468 22.2045 17.0546 22.1123L17.1991 22.25ZM32.9052 22.043C32.8447 22.1202 32.7833 22.1965 32.7216 22.2725C32.7833 22.1965 32.8447 22.1202 32.9052 22.043ZM33.1522 21.7188C33.0896 21.8031 33.026 21.8867 32.9618 21.9697C33.026 21.8867 33.0896 21.8031 33.1522 21.7188ZM16.7245 21.7393C16.706 21.7158 16.6868 21.6928 16.6688 21.6689C16.6868 21.6928 16.706 21.7158 16.7245 21.7393ZM33.413 21.3574C33.3442 21.4556 33.2747 21.553 33.204 21.6494C33.2747 21.553 33.3442 21.4556 33.413 21.3574ZM16.4403 21.333C16.4069 21.2783 16.3755 21.2223 16.3446 21.166C16.3755 21.2223 16.4069 21.2783 16.4403 21.333ZM33.6014 21.0811C33.5541 21.1518 33.5063 21.2221 33.4579 21.292C33.5063 21.2221 33.5541 21.1518 33.6014 21.0811ZM16.286 21.0537C16.277 21.0361 16.2674 21.0188 16.2587 21.001C16.2674 21.0188 16.277 21.0361 16.286 21.0537ZM33.8417 20.7109C33.788 20.7962 33.7338 20.8808 33.6786 20.9648C33.7338 20.8808 33.788 20.7962 33.8417 20.7109ZM16.205 20.8857C16.1935 20.8604 16.1818 20.8352 16.1708 20.8096C16.1818 20.8352 16.1935 20.8604 16.205 20.8857ZM16.1161 20.6758C16.1095 20.6589 16.1029 20.642 16.0966 20.625C16.1029 20.642 16.1095 20.6589 16.1161 20.6758ZM34.0809 20.3203C34.0213 20.4213 33.961 20.5217 33.8993 20.6211C33.961 20.5217 34.0213 20.4213 34.0809 20.3203ZM16.0526 20.502C16.0462 20.4831 16.0392 20.4643 16.0331 20.4453C16.0392 20.4643 16.0462 20.4831 16.0526 20.502ZM19.9999 11.917C23.9961 11.917 27.2494 15.1559 27.2333 19.1494V19.1504C27.2332 19.5849 27.1811 20.0138 27.1014 20.4316L24.0096 17.3389C23.5702 16.3662 22.7831 15.58 21.8104 15.1406L18.7137 12.043C19.1346 11.9605 19.5587 11.917 19.9999 11.917ZM15.996 20.3203C15.9881 20.2931 15.9808 20.2657 15.9735 20.2383C15.9808 20.2657 15.9881 20.2931 15.996 20.3203ZM34.3192 19.9014C34.3841 19.7834 34.4486 19.665 34.5106 19.5449L34.5184 19.5303C34.4539 19.6553 34.3867 19.7786 34.3192 19.9014ZM15.953 20.1582C15.9442 20.1222 15.9355 20.0862 15.9276 20.0498C15.9355 20.0862 15.9442 20.1222 15.953 20.1582ZM15.9061 19.9414C15.8994 19.9054 15.8934 19.8693 15.8876 19.833C15.8934 19.8693 15.8994 19.9054 15.9061 19.9414ZM15.8729 19.7402C15.8685 19.7081 15.8649 19.6759 15.8612 19.6436C15.8649 19.6759 15.8685 19.7081 15.8729 19.7402ZM15.8495 19.5303C15.8464 19.4946 15.8439 19.4588 15.8417 19.4229C15.8439 19.4588 15.8464 19.4946 15.8495 19.5303ZM15.8329 19.167C15.8329 19.2265 15.8343 19.2858 15.8368 19.3447C15.836 19.3262 15.8354 19.3076 15.8348 19.2891C15.8337 19.2487 15.8329 19.2077 15.8329 19.167ZM21.1327 28.293C20.954 28.3054 20.7747 28.3147 20.5946 28.3213C20.7747 28.3147 20.954 28.3054 21.1327 28.293ZM17.6639 22.6162C17.6119 22.5809 17.5609 22.5444 17.5106 22.5068C17.5609 22.5444 17.6119 22.5809 17.6639 22.6162ZM16.8475 21.8887C16.8276 21.8656 16.8074 21.8428 16.788 21.8193C16.8074 21.8428 16.8276 21.8656 16.8475 21.8887ZM16.5028 21.4307C16.4818 21.3983 16.4605 21.366 16.4403 21.333C16.4605 21.366 16.4818 21.3983 16.5028 21.4307ZM34.2479 20.0283C34.2065 20.1021 34.1655 20.1761 34.1229 20.249C34.1655 20.1761 34.2065 20.1021 34.2479 20.0283ZM34.2479 20.0283C34.2717 19.986 34.2958 19.9439 34.3192 19.9014C34.2958 19.9439 34.2717 19.986 34.2479 20.0283ZM18.5575 6.71875C18.7481 6.70496 18.9396 6.69387 19.1317 6.68555C18.9396 6.69387 18.7481 6.70496 18.5575 6.71875Z" fill="#9B9B9B"/>
</g>
<defs>
<clipPath id="clip0_14619_326">
<rect width="40" height="40" fill="white"/>
</clipPath>
</defs>
</svg>
