<svg width="40" height="40" viewBox="0 0 40 40" fill="none" xmlns="http://www.w3.org/2000/svg">
<g clip-path="url(#clip0_14619_320)">
<path d="M20.0001 6.91663C28.192 6.91667 35.1943 11.9903 38.0645 19.1666C35.1943 26.3429 28.192 31.4166 20.0001 31.4166C11.8081 31.4166 4.80585 26.3429 1.93561 19.1666C4.80585 11.9903 11.8081 6.91663 20.0001 6.91663ZM20.0001 9.74963C13.5876 9.74963 7.86708 13.3544 5.07526 19.0563L5.02155 19.1666L5.07526 19.277C7.86708 24.9788 13.5876 28.5836 20.0001 28.5836C26.4125 28.5836 32.1331 24.9788 34.9249 19.277L34.9786 19.1666L34.9249 19.0563C32.1331 13.3544 26.4125 9.74967 20.0001 9.74963ZM20.0001 11.9166C23.9953 11.9167 27.2501 15.1714 27.2501 19.1666C27.2501 23.1619 23.9953 26.4166 20.0001 26.4166C16.0048 26.4166 12.7501 23.1619 12.7501 19.1666C12.7501 15.1714 16.0048 11.9166 20.0001 11.9166ZM20.0001 14.7496C17.562 14.7496 15.5831 16.7286 15.5831 19.1666C15.5831 21.6047 17.562 23.5836 20.0001 23.5836C22.4381 23.5836 24.4171 21.6047 24.4171 19.1666C24.4171 16.7286 22.4381 14.7497 20.0001 14.7496ZM9.9317 13.444C9.78381 13.5594 9.63813 13.6778 9.4942 13.7985L9.06842 14.1676C9.20837 14.0418 9.35016 13.9182 9.4942 13.7975L9.9317 13.444ZM30.0684 13.444C30.2161 13.5593 30.3621 13.677 30.5059 13.7975L30.9317 14.1676C30.7919 14.0419 30.6498 13.9191 30.5059 13.7985L30.0684 13.444Z" fill="#9B9B9B"/>
</g>
<defs>
<clipPath id="clip0_14619_320">
<rect width="40" height="40" fill="white"/>
</clipPath>
</defs>
</svg>
