<svg width="24" height="24" viewBox="0 0 24 24" fill="none" xmlns="http://www.w3.org/2000/svg">
<g clip-path="url(#clip0_1251_662)">
<mask id="mask0_1251_662" style="mask-type:luminance" maskUnits="userSpaceOnUse" x="0" y="0" width="24" height="24">
<path d="M24 0H0V24H24V0Z" fill="white"/>
</mask>
<g mask="url(#mask0_1251_662)">
<path d="M20.4933 3.85708C18.7055 1.90887 16.4203 0.730075 13.7016 0.360161C13.1599 0.286179 12.6181 0.251653 12.0813 0.251653C6.88529 0.246721 2.20152 3.64993 0.81264 8.66102C-0.0344764 11.7239 0.30043 14.6931 1.81244 17.4896C1.91094 17.6771 1.93064 17.8398 1.87646 18.0371C1.52678 19.2948 1.18202 20.5525 0.837266 21.8102L0.344756 23.5907C0.334906 23.6302 0.315205 23.6746 0.30043 23.714L0.773239 23.5809C1.18202 23.4674 1.59081 23.354 1.99959 23.2455C3.39339 22.8805 4.7872 22.5155 6.18592 22.1653C6.32875 22.1308 6.50605 22.1505 6.63903 22.2196C9.77139 23.8521 13.4455 23.9755 16.7109 22.5599C19.9319 21.1641 22.3205 18.4514 23.2612 15.1074C24.4383 10.9249 23.5075 7.13698 20.4983 3.85215L20.4933 3.85708ZM14.1941 21.5242C13.4554 21.682 12.7215 21.7658 12.0025 21.7658C10.2048 21.7658 8.47609 21.2726 6.83604 20.2862C6.71783 20.2122 6.62918 20.2023 6.50113 20.2319C5.60476 20.4687 4.71332 20.7005 3.81695 20.9323L3.26041 21.0753C3.21609 21.0852 3.16684 21.0951 3.10774 21.1099L2.82701 21.1641L2.99446 20.5377C3.05849 20.301 3.11759 20.0692 3.18161 19.8374L3.28011 19.4773C3.45249 18.846 3.6298 18.2147 3.8071 17.5883C3.83665 17.4798 3.8268 17.4058 3.75785 17.3022C2.63985 15.5907 2.08824 13.7214 2.11287 11.7486C2.17197 7.26522 5.2403 3.35893 9.58424 2.24919C12.2635 1.56361 15.0314 2.00751 17.3757 3.4921C19.7152 4.97175 21.2912 7.28495 21.8231 9.99271C22.8426 15.2258 19.4197 20.3996 14.1941 21.5242Z" fill="#4B4B4B"/>
<path d="M15.1447 17.5094C14.8639 17.4748 14.5684 17.4748 14.2976 17.3959C12.7806 16.952 11.3277 16.37 10.0915 15.3491C9.12621 14.555 8.32341 13.6129 7.55017 12.6364C7.04289 12.0001 6.60948 11.3195 6.3189 10.555C5.78206 9.13451 6.07265 7.87681 7.09214 6.772C7.28422 6.56485 7.52555 6.44154 7.80628 6.43168C8.07716 6.42181 8.34804 6.42181 8.614 6.43661C8.84548 6.45141 8.95875 6.62403 9.04248 6.81146C9.19516 7.14685 9.33306 7.4921 9.47589 7.83242C9.65812 8.26645 9.83049 8.70048 10.0226 9.13451C10.1162 9.3466 10.1162 9.54389 9.98317 9.72638C9.76154 10.0322 9.53991 10.338 9.30351 10.629C9.0474 10.9446 9.03755 11.0285 9.23948 11.3688C10.1802 12.9323 11.4804 14.0815 13.1796 14.7671C13.5342 14.9101 13.6622 14.8854 13.9036 14.5944C14.1794 14.264 14.4552 13.9286 14.7211 13.5883C14.9378 13.3121 15.0412 13.2628 15.3712 13.3861C15.6815 13.4995 15.977 13.6475 16.2824 13.7806C16.7503 13.9829 17.2231 14.1801 17.686 14.3922C18.0209 14.5451 18.0505 14.624 18.0456 14.9841C18.0209 16.5377 16.8537 17.2332 15.6569 17.46C15.4894 17.4896 15.3171 17.4847 15.1496 17.4946V17.5143L15.1447 17.5094Z" fill="#4B4B4B"/>
</g>
</g>
<defs>
<clipPath id="clip0_1251_662">
<rect width="24" height="24" fill="white"/>
</clipPath>
</defs>
</svg>
