<svg width="190" height="56" viewBox="0 0 190 56" fill="none" xmlns="http://www.w3.org/2000/svg">
<g id="Google Play store en" clip-path="url(#clip0_1234_41600)">
<path id="Vector" d="M182.398 0H7.72951C3.87375 0 0.748047 3.13173 0.748047 6.99491V49.0051C0.748047 52.8683 3.87375 56 7.72951 56H182.398C186.254 56 189.38 52.8683 189.38 49.0051V6.99491C189.38 3.13173 186.254 0 182.398 0Z" fill="black"/>
<path id="Vector_2" d="M182.398 1.12C185.63 1.12 188.262 3.75709 188.262 7.00509V49.0051C188.262 52.2429 185.63 54.8902 182.398 54.8902H7.72951C4.49792 54.8902 1.86589 52.2531 1.86589 49.0051V7.00509C1.86589 3.75709 4.49792 1.12 7.72951 1.12H182.388M182.398 0H7.72951C3.88818 0 0.748047 3.14618 0.748047 7.00509V49.0051C0.748047 52.8538 3.88818 56 7.72951 56H182.388C186.229 56 189.369 52.8538 189.369 49.0051V7.00509C189.38 3.14618 186.24 0 182.398 0Z" fill="#A6A6A6"/>
<path id="Vector_3" d="M67.0062 14.336C67.0062 15.5069 66.6607 16.4436 65.9696 17.136C65.1871 17.9607 64.1607 18.3782 62.8905 18.3782C61.6202 18.3782 60.6446 17.9607 59.8011 17.1156C58.9577 16.2706 58.541 15.232 58.541 14C58.541 12.768 58.9577 11.7193 59.8011 10.8844C60.6446 10.0393 61.671 9.62183 62.8905 9.62183C63.5104 9.62183 64.0896 9.73383 64.6384 9.94765C65.1871 10.1615 65.6343 10.4771 65.9899 10.8742L65.2176 11.648C64.9636 11.3324 64.6282 11.088 64.2116 10.9149C63.8051 10.7418 63.3579 10.6502 62.8905 10.6502C61.9759 10.6502 61.2035 10.9658 60.5735 11.5971C59.9536 12.2386 59.6385 13.0429 59.6385 14C59.6385 14.9571 59.9536 15.7615 60.5735 16.4029C61.2035 17.0342 61.9759 17.3498 62.8905 17.3498C63.7238 17.3498 64.425 17.1156 64.9737 16.6473C65.5326 16.1789 65.8477 15.5375 65.9391 14.7127H62.8905V13.7047H66.9554C66.996 13.9287 67.0163 14.1324 67.0163 14.336H67.0062Z" fill="white" stroke="white" stroke-width="0.2" stroke-miterlimit="10"/>
<path id="Vector_4" d="M73.449 9.80505V10.8334H69.628V13.5011H73.073V14.5091H69.628V17.1767H73.449V18.2051H68.5508V9.80505H73.449Z" fill="white" stroke="white" stroke-width="0.2" stroke-miterlimit="10"/>
<path id="Vector_5" d="M77.9917 10.8334V18.2051H76.9145V10.8334H74.5771V9.80505H80.3391V10.8334H78.0018H77.9917Z" fill="white" stroke="white" stroke-width="0.2" stroke-miterlimit="10"/>
<path id="Vector_6" d="M85.5723 18.2051H84.4951V9.80505H85.5723V18.2051Z" fill="white" stroke="white" stroke-width="0.2" stroke-miterlimit="10"/>
<path id="Vector_7" d="M90.3589 10.8334V18.2051H89.2817V10.8334H86.9443V9.80505H92.7063V10.8334H90.369H90.3589Z" fill="white" stroke="white" stroke-width="0.2" stroke-miterlimit="10"/>
<path id="Vector_8" d="M104.84 14C104.84 15.2422 104.424 16.2807 103.6 17.1156C102.767 17.9607 101.741 18.3782 100.531 18.3782C99.3221 18.3782 98.2958 17.9607 97.4625 17.1156C96.6393 16.2807 96.2227 15.2422 96.2227 14C96.2227 12.7578 96.6393 11.7193 97.4625 10.8844C98.2856 10.0393 99.312 9.62183 100.531 9.62183C101.751 9.62183 102.767 10.0495 103.6 10.9047C104.424 11.7396 104.84 12.7782 104.84 14.0102V14ZM97.3202 14C97.3202 14.9673 97.625 15.7716 98.2348 16.4029C98.8547 17.0342 99.6169 17.3498 100.531 17.3498C101.446 17.3498 102.208 17.0342 102.818 16.4029C103.438 15.7818 103.743 14.9775 103.743 14C103.743 13.0226 103.438 12.2182 102.818 11.5971C102.208 10.9658 101.446 10.6502 100.531 10.6502C99.6169 10.6502 98.8547 10.9658 98.2348 11.5971C97.625 12.2284 97.3202 13.0327 97.3202 14Z" fill="white" stroke="white" stroke-width="0.2" stroke-miterlimit="10"/>
<path id="Vector_9" d="M107.421 18.2051H106.344V9.80505H107.655L111.73 16.3418H111.781L111.73 14.7229V9.80505H112.807V18.2051H111.679L107.421 11.3527H107.37L107.421 12.9716V18.2051Z" fill="white" stroke="white" stroke-width="0.2" stroke-miterlimit="10"/>
<path id="Vector_10" d="M95.9583 30.4538C92.6759 30.4538 89.993 32.9586 89.993 36.4102C89.993 39.8618 92.6759 42.3666 95.9583 42.3666C99.2407 42.3666 101.924 39.8415 101.924 36.4102C101.924 32.9789 99.2407 30.4538 95.9583 30.4538ZM95.9583 40.0146C94.1596 40.0146 92.6047 38.528 92.6047 36.4102C92.6047 34.2924 94.1596 32.8058 95.9583 32.8058C97.757 32.8058 99.3118 34.272 99.3118 36.4102C99.3118 38.5484 97.757 40.0146 95.9583 40.0146ZM82.9404 30.4538C79.658 30.4538 76.9752 32.9586 76.9752 36.4102C76.9752 39.8618 79.658 42.3666 82.9404 42.3666C86.2228 42.3666 88.9057 39.8415 88.9057 36.4102C88.9057 32.9789 86.2228 30.4538 82.9404 30.4538ZM82.9404 40.0146C81.1417 40.0146 79.5869 38.528 79.5869 36.4102C79.5869 34.2924 81.1417 32.8058 82.9404 32.8058C84.7392 32.8058 86.294 34.272 86.294 36.4102C86.294 38.5484 84.7392 40.0146 82.9404 40.0146ZM67.4633 32.2764V34.8015H73.4997C73.3168 36.2269 72.8493 37.2553 72.1278 37.9782C71.2539 38.8538 69.8718 39.8313 67.4633 39.8313C63.744 39.8313 60.8477 36.8277 60.8477 33.1113C60.8477 29.3949 63.7541 26.3913 67.4633 26.3913C69.4653 26.3913 70.9287 27.1855 72.0059 28.1935L73.7843 26.4117C72.2802 24.9658 70.2681 23.8662 67.4633 23.8662C62.3721 23.8662 58.0938 28.0204 58.0938 33.1113C58.0938 38.2022 62.3721 42.3564 67.4633 42.3564C70.2071 42.3564 72.2802 41.4502 73.9062 39.76C75.5728 38.0902 76.0911 35.7484 76.0911 33.8546C76.0911 33.264 76.0504 32.7244 75.959 32.2764H67.4735H67.4633ZM130.774 34.2415C130.276 32.9077 128.772 30.4538 125.683 30.4538C122.594 30.4538 120.073 32.8669 120.073 36.4102C120.073 39.7498 122.594 42.3666 125.967 42.3666C128.691 42.3666 130.266 40.6968 130.916 39.7295L128.894 38.3753C128.223 39.3629 127.299 40.0248 125.967 40.0248C124.636 40.0248 123.691 39.4138 123.081 38.2226L131.028 34.9338L130.754 34.2618L130.774 34.2415ZM122.665 36.2269C122.594 33.9258 124.443 32.7549 125.774 32.7549C126.811 32.7549 127.685 33.2742 127.979 34.0175L122.665 36.2269ZM116.201 42H118.813V24.4975H116.201V42ZM111.923 31.7877H111.832C111.242 31.0851 110.124 30.4538 108.702 30.4538C105.734 30.4538 103.011 33.0706 103.011 36.4306C103.011 39.7906 105.734 42.3666 108.702 42.3666C110.124 42.3666 111.242 41.7353 111.832 41.0124H111.923V41.8677C111.923 44.1484 110.704 45.36 108.753 45.36C107.157 45.36 106.161 44.2095 105.755 43.2422L103.478 44.1891C104.129 45.7673 105.866 47.712 108.742 47.712C111.801 47.712 114.393 45.9098 114.393 41.5113V30.8204H111.913V31.7877H111.923ZM108.935 40.0146C107.137 40.0146 105.623 38.5077 105.623 36.4306C105.623 34.3535 107.127 32.7957 108.935 32.7957C110.744 32.7957 112.106 34.3331 112.106 36.4306C112.106 38.528 110.714 40.0146 108.935 40.0146ZM142.999 24.4975H136.75V42H139.361V35.3717H142.999C145.885 35.3717 148.731 33.2742 148.731 29.9346C148.731 26.5949 145.885 24.4975 142.999 24.4975ZM143.07 32.9382H139.361V26.9411H143.07C145.022 26.9411 146.129 28.56 146.129 29.9448C146.129 31.3295 145.022 32.9484 143.07 32.9484V32.9382ZM159.178 30.4233C157.287 30.4233 155.336 31.2582 154.523 33.1011L156.84 34.0684C157.338 33.1011 158.253 32.7855 159.218 32.7855C160.57 32.7855 161.942 33.6 161.962 35.0357V35.2189C161.495 34.944 160.478 34.5469 159.239 34.5469C156.749 34.5469 154.208 35.9215 154.208 38.4873C154.208 40.8291 156.251 42.336 158.548 42.336C160.295 42.336 161.271 41.552 161.871 40.6255H161.962V41.9797H164.482V35.2698C164.482 32.1644 162.165 30.4335 159.178 30.4335V30.4233ZM158.873 40.0146C158.019 40.0146 156.83 39.5869 156.83 38.528C156.83 37.1738 158.314 36.6546 159.594 36.6546C160.743 36.6546 161.281 36.8989 161.972 37.2349C161.769 38.8538 160.377 40.0044 158.873 40.0044V40.0146ZM173.659 30.8L170.671 38.3855H170.58L167.48 30.8H164.675L169.33 41.4095L166.677 47.3048H169.401L176.565 30.8H173.669H173.659ZM150.174 42H152.786V24.4975H150.174V42Z" fill="white"/>
<path id="Vector_11" d="M29.7008 27.1956L14.8232 43.0182C15.2805 44.7389 16.8455 46.0014 18.7052 46.0014C19.4471 46.0014 20.1483 45.7978 20.7478 45.4516L20.7986 45.4211L37.546 35.7381L29.7109 27.1854L29.7008 27.1956Z" fill="#EA4335"/>
<path id="Vector_12" d="M44.7505 24.4974H44.7403L37.515 20.2924L29.375 27.552L37.5454 35.7382L44.7403 31.584C46.0004 30.9018 46.8541 29.568 46.8541 28.0305C46.8541 26.4931 46.0106 25.1796 44.7606 24.4974H44.7505Z" fill="#FBBC04"/>
<path id="Vector_13" d="M14.8225 12.9919C14.7311 13.3178 14.6904 13.6741 14.6904 14.0305V41.9898C14.6904 42.3461 14.7412 42.6923 14.8327 43.0283L30.2183 27.613L14.8327 13.0021L14.8225 12.9919Z" fill="#4285F4"/>
<path id="Vector_14" d="M29.8024 28L37.5054 20.2924L20.7783 10.5789C20.1686 10.2124 19.4572 9.99854 18.7052 9.99854C16.8455 9.99854 15.2805 11.2611 14.8232 12.9818L29.8126 28H29.8024Z" fill="#34A853"/>
</g>
<defs>
<clipPath id="clip0_1234_41600">
<rect width="188.632" height="56" fill="white" transform="translate(0.748047)"/>
</clipPath>
</defs>
</svg>
