<svg width="138" height="55" viewBox="0 0 138 55" fill="none" xmlns="http://www.w3.org/2000/svg">
<g clip-path="url(#clip0_999_1332)">
<path d="M3.97671 54.2081C2.29166 53.7195 0.977319 53.096 0.0336914 52.3377L1.71874 49.153C2.69607 49.8439 3.89245 50.4168 5.2742 50.838C6.67279 51.2593 8.08823 51.4615 9.50367 51.4615C13.0254 51.4615 14.7947 50.4505 14.7947 48.4453C14.7947 47.7712 14.5588 47.2489 14.087 46.8445C13.6152 46.4569 13.0254 46.1704 12.3008 45.9851C11.5931 45.7997 10.5821 45.5975 9.26776 45.3785C7.48161 45.092 6.01562 44.7719 4.88663 44.418C3.75765 44.0473 2.78032 43.4407 1.9715 42.5813C1.16267 41.7219 0.758263 40.4918 0.758263 38.9416C0.758263 36.9364 1.60079 35.3187 3.26899 34.1055C4.95403 32.8923 7.19515 32.2856 10.026 32.2856C11.5089 32.2856 12.9917 32.471 14.4746 32.8249C15.9574 33.1956 17.1706 33.6842 18.1143 34.2909L16.3955 37.4756C14.5757 36.2961 12.4357 35.7063 9.97548 35.7063C8.27358 35.7063 6.9761 35.9928 6.08302 36.5488C5.18994 37.1049 4.73498 37.8463 4.73498 38.7731C4.73498 39.4977 4.98774 40.0706 5.49325 40.4918C5.99877 40.9131 6.62223 41.2164 7.36365 41.4186C8.10508 41.6208 9.14981 41.8399 10.481 42.0926C12.2671 42.3959 13.7163 42.7329 14.8284 43.07C15.9237 43.4238 16.8673 44.0136 17.6593 44.8561C18.4344 45.6986 18.8388 46.8613 18.8388 48.3779C18.8388 50.3831 17.9795 51.9839 16.2607 53.1803C14.542 54.3766 12.1997 54.9664 9.23406 54.9664C7.39736 54.9327 5.66176 54.6968 3.97671 54.2081Z" fill="white"/>
<path d="M81.5056 23.5908V35.184C79.4836 33.3641 76.8212 32.2351 73.8724 32.2351C67.5871 32.2351 62.4983 37.324 62.4983 43.6092C62.4983 49.8944 67.5871 54.9833 73.8724 54.9833C76.9223 54.9833 79.6858 53.77 81.7415 51.8154V54.7137H85.5329V23.5908H81.5056ZM73.8724 50.9897C69.7946 50.9897 66.4919 47.687 66.4919 43.6092C66.4919 39.5314 69.7946 36.2287 73.8724 36.2287C77.9502 36.2287 81.2529 39.5314 81.2529 43.6092C81.2529 47.687 77.9502 50.9897 73.8724 50.9897Z" fill="white"/>
<path d="M3.94301 54.2416C2.25796 53.753 0.943627 53.1295 0 52.3712L1.68505 49.1865C2.66238 49.8942 3.85876 50.4503 5.25735 50.8715C6.65594 51.2928 8.07138 51.495 9.50367 51.495C13.0254 51.495 14.7947 50.484 14.7947 48.4788C14.7947 47.8048 14.5588 47.2824 14.087 46.878C13.6152 46.4904 13.0086 46.204 12.3009 46.0186C11.5931 45.8332 10.5653 45.631 9.25092 45.412C7.46477 45.1255 5.99877 44.8054 4.86979 44.4515C3.74081 44.0808 2.76348 43.4742 1.95466 42.5979C1.14583 41.7386 0.741421 40.5085 0.741421 38.9414C0.741421 36.9193 1.58395 35.3185 3.25214 34.0884C4.93719 32.8752 7.17831 32.2686 10.0092 32.2686C11.492 32.2686 12.9749 32.454 14.4577 32.8078C15.9406 33.1785 17.1538 33.6672 18.1143 34.2738L16.3955 37.4585C14.5757 36.279 12.4357 35.6892 9.97549 35.6892C8.27359 35.6892 6.95925 35.9757 6.06618 36.5318C5.1731 37.0878 4.71814 37.8293 4.71814 38.756C4.71814 39.4806 4.97089 40.0535 5.47641 40.4748C5.98192 40.8961 6.60539 41.1994 7.34681 41.4016C8.08824 41.6038 9.13296 41.8228 10.481 42.0756C12.2672 42.3789 13.7163 42.7159 14.8284 43.0698C15.9406 43.4236 16.8842 44.0134 17.6593 44.8559C18.4344 45.6984 18.8388 46.878 18.8388 48.3777C18.8388 50.3997 17.9795 52.0005 16.2607 53.1801C14.542 54.3764 12.1998 54.9662 9.23407 54.9662C7.38051 54.9662 5.62806 54.7303 3.94301 54.2416Z" fill="white"/>
<path d="M90.841 27.4322C90.3187 26.9267 90.0659 26.3201 90.0659 25.5787C90.0659 24.8541 90.3187 24.2306 90.841 23.7083C91.3634 23.1859 92.0037 22.9331 92.7957 22.9331C93.5708 22.9331 94.228 23.1859 94.7504 23.6746C95.2727 24.1632 95.5255 24.7698 95.5255 25.4944C95.5255 26.2527 95.2727 26.893 94.7504 27.3985C94.228 27.9209 93.5877 28.1737 92.7957 28.1737C92.0037 28.1905 91.3634 27.9377 90.841 27.4322Z" fill="white"/>
<path d="M94.8009 32.4707H90.7737V54.7134H94.8009V32.4707Z" fill="white"/>
<path d="M54.9326 32.471V44.7381C54.8315 48.6306 51.9838 50.9728 48.4789 50.9728C44.9066 50.9728 42.0251 50.2145 42.0083 44.5359V32.4541H38.0147V44.5359C37.981 52.9948 42.716 54.9664 48.4789 54.9664C51.0233 54.9664 53.3655 54.0564 55.1685 52.5399V54.6967H58.9767V32.4541H54.9326V32.471Z" fill="white"/>
<path d="M110.371 32.2349C104.085 32.2349 98.9966 37.3238 98.9966 43.609C98.9966 49.8942 104.085 54.9831 110.371 54.9831C116.656 54.9831 121.745 49.8942 121.745 43.609C121.745 37.3238 116.656 32.2349 110.371 32.2349ZM110.371 50.9895C106.293 50.9895 102.99 47.6868 102.99 43.609C102.99 39.5312 106.293 36.2285 110.371 36.2285C114.448 36.2285 117.751 39.5312 117.751 43.609C117.751 47.6868 114.448 50.9895 110.371 50.9895Z" fill="white"/>
<path d="M29.6062 50.9895C28.4941 50.939 27.6853 50.7536 27.045 50.147C26.3373 49.473 26.1687 48.7147 26.1687 47.5015V35.7904H34.0716V32.4708H26.1687V25.9497H22.1415V47.7374C22.1415 49.9785 22.7649 51.6973 23.995 52.8936C25.2251 54.09 27.0113 54.9663 29.4714 54.9663C31.5272 54.9663 33.0606 54.764 34.0716 54.3091V50.2144C32.5382 50.939 30.7858 51.0401 29.6062 50.9895Z" fill="white"/>
<path opacity="0.3" d="M126.008 32.4873C125.183 32.4873 124.391 32.5885 123.615 32.757C127.592 34.7622 130.322 38.8737 130.322 43.6255C130.322 48.3774 127.575 52.4889 123.615 54.4941C124.391 54.6626 125.199 54.7637 126.025 54.7637C132.176 54.7637 137.163 49.776 137.163 43.6255C137.146 37.4751 132.159 32.4873 126.008 32.4873Z" fill="white"/>
<path opacity="0.6" d="M118.139 32.252C117.229 32.252 116.336 32.3699 115.493 32.5721C119.672 34.5099 122.587 38.7225 122.587 43.626C122.587 48.5295 119.672 52.759 115.477 54.68C116.319 54.8822 117.212 55.0001 118.122 55.0001C124.407 55.0001 129.496 49.9113 129.496 43.626C129.513 37.3408 124.424 32.252 118.139 32.252Z" fill="white"/>
<path d="M110.371 32.2349C104.085 32.2349 98.9966 37.3238 98.9966 43.609C98.9966 49.8942 104.085 54.9831 110.371 54.9831C116.656 54.9831 121.745 49.8942 121.745 43.609C121.745 37.3238 116.656 32.2349 110.371 32.2349ZM110.371 50.9895C106.293 50.9895 102.99 47.6868 102.99 43.609C102.99 39.5312 106.293 36.2285 110.371 36.2285C114.448 36.2285 117.667 39.5312 117.667 43.609C117.684 47.6868 114.448 50.9895 110.371 50.9895Z" fill="white"/>
<path d="M5.32471 6.95925H1.01099V19.0074H5.42581V12.4694C5.42581 11.3067 5.98188 10.3968 7.09402 10.3968C8.86332 10.3968 8.59371 11.947 8.59371 13.1771V19.0074H13.0085V15.89C14.0701 17.9289 16.1933 19.3275 18.6535 19.3275C21.7876 19.3275 24.3995 17.0527 24.905 14.0702L26.4384 19.0074H30.7353L32.2686 13.076L33.7852 19.0074H38.0821L41.8397 6.95925H37.408L35.7736 12.8569L34.2065 6.95925H30.2971L28.7132 12.8738L27.0955 6.95925H22.6807L23.1694 8.52635C22.0236 7.36367 20.4228 6.63909 18.6366 6.63909C16.1259 6.63909 13.9522 8.10509 12.9243 10.2282C12.7052 8.59375 11.829 6.63909 8.56001 6.63909C7.43102 6.63909 6.16724 7.11091 5.30786 7.91973V6.95925H5.32471ZM16.227 12.9917C16.227 11.6437 17.3223 10.5484 18.6703 10.5484C20.0183 10.5484 21.1136 11.6437 21.1136 12.9917C21.1136 14.3398 20.0183 15.4351 18.6703 15.4351C17.3223 15.4351 16.227 14.3398 16.227 12.9917ZM17.7604 26.0172H19.5465V20.5913H17.7604V26.0172ZM17.7604 5.42586H19.5465V0H17.7604V5.42586Z" fill="white"/>
</g>
<defs>
<clipPath id="clip0_999_1332">
<rect width="138" height="55" fill="white"/>
</clipPath>
</defs>
</svg>
