<?xml version="1.0" encoding="utf-8"?>
<!-- Generator: Adobe Illustrator 23.1.1, SVG Export Plug-In . SVG Version: 6.00 Build 0)  -->
<svg version="1.1" id="Layer_1" xmlns="http://www.w3.org/2000/svg" xmlns:xlink="http://www.w3.org/1999/xlink" x="0px" y="0px"
	 viewBox="0 0 50 50" style="enable-background:new 0 0 50 50;" xml:space="preserve">
<style type="text/css">
	.st0{fill:#B4B4B4;}
	.st1{fill:#FFFFFF;}
</style>
<g>
	<path class="st0" d="M47.2,0H2.8C1.2,0,0,1.2,0,2.8v44.5C0,48.8,1.2,50,2.8,50h24V30.6h-6.5v-7.5h6.5v-5.6c0-6.5,3.9-10,9.7-10
		c2.8,0,5.1,0.2,5.8,0.3v6.8h-4c-3.1,0-3.7,1.5-3.7,3.7v4.8H42l-1,7.5h-6.5V50h12.7c1.5,0,2.8-1.2,2.8-2.8V2.8C50,1.2,48.8,0,47.2,0
		z"/>
</g>
<path class="st1" d="M41,30.6l1-7.5h-7.5v-4.8c0-2.2,0.6-3.7,3.7-3.7h4V7.8c-0.7-0.1-3.1-0.3-5.8-0.3c-5.8,0-9.7,3.5-9.7,10v5.6
	h-6.5v7.5h6.5V50h7.8V30.6H41z"/>
</svg>
