<svg width="30" height="30" viewBox="0 0 30 30" fill="none" xmlns="http://www.w3.org/2000/svg">
<g clip-path="url(#clip0_1118_866)">
<mask id="mask0_1118_866" style="mask-type:luminance" maskUnits="userSpaceOnUse" x="0" y="0" width="30" height="30">
<path d="M29.9562 0H0V29.9562H29.9562V0Z" fill="white"/>
</mask>
<g mask="url(#mask0_1118_866)">
<path d="M25.0781 0H4.87812C2.18402 0 0 2.18402 0 4.87812V25.0781C0 27.7722 2.18402 29.9563 4.87812 29.9563H25.0781C27.7722 29.9563 29.9563 27.7722 29.9563 25.0781V4.87812C29.9563 2.18402 27.7722 0 25.0781 0Z" fill="url(#paint0_radial_1118_866)"/>
<path d="M20.2907 27.3156H9.66572C7.80308 27.3123 6.01786 26.57 4.70196 25.2517C3.38604 23.9336 2.64697 22.147 2.64697 20.2843V9.65933C2.65152 7.79967 3.3926 6.01755 4.70802 4.703C6.02344 3.38847 7.80605 2.64858 9.66572 2.64526H20.2907C22.1504 2.64858 23.9331 3.38847 25.2484 4.703C26.5638 6.01755 27.3049 7.79967 27.3095 9.65933V20.2843C27.3095 22.147 26.5704 23.9336 25.2545 25.2517C23.9385 26.57 22.1534 27.3123 20.2907 27.3156ZM9.66572 4.76558C8.36732 4.76722 7.12239 5.283 6.20327 6.20008C5.28413 7.11717 4.76557 8.36094 4.76103 9.65933V20.2843C4.76103 21.5857 5.27758 22.8339 6.19721 23.7547C7.11683 24.6754 8.36435 25.1936 9.66572 25.1953H20.2907C21.5921 25.1936 22.8396 24.6754 23.7592 23.7547C24.6788 22.8339 25.1954 21.5857 25.1954 20.2843V9.65933C25.1924 8.35984 24.6746 7.11448 23.7554 6.19604C22.836 5.27761 21.5903 4.76098 20.2907 4.75933L9.66572 4.76558Z" fill="white"/>
<path d="M14.9782 21.2923C13.3029 21.2906 11.6968 20.624 10.5126 19.439C9.32839 18.2539 8.663 16.6473 8.6626 14.972C8.66591 13.2986 9.33255 11.6947 10.5164 10.512C11.7003 9.32932 13.3048 8.66425 14.9782 8.6626C16.6517 8.66425 18.2562 9.32932 19.4399 10.512C20.6238 11.6947 21.2906 13.2986 21.2938 14.972C21.2934 16.6473 20.6281 18.2539 19.4438 19.439C18.2596 20.624 16.6535 21.2906 14.9782 21.2923ZM14.9782 10.7767C13.8654 10.7779 12.7983 11.2201 12.0108 12.0064C11.2233 12.7928 10.7796 13.8591 10.7767 14.972C10.7767 16.0867 11.2192 17.1559 12.007 17.9446C12.7948 18.7332 13.8635 19.177 14.9782 19.1782C16.0931 19.1775 17.162 18.7339 17.9499 17.9451C18.7378 17.1562 19.1803 16.0868 19.1798 14.972C19.1768 13.8591 18.7331 12.7928 17.9456 12.0064C17.1581 11.2201 16.091 10.7779 14.9782 10.7767Z" fill="white"/>
<path d="M23.0812 8.30147C23.0812 8.5007 23.042 8.698 22.9658 8.88207C22.8895 9.06614 22.7778 9.2334 22.6369 9.37428C22.4959 9.51517 22.3287 9.62692 22.1447 9.70317C21.9606 9.77942 21.7633 9.81865 21.5641 9.81865C21.1617 9.81865 20.7758 9.65881 20.4912 9.37428C20.2067 9.08975 20.0469 8.70386 20.0469 8.30147C20.0469 7.89893 20.2067 7.51287 20.4911 7.22811C20.7756 6.94332 21.1616 6.78314 21.5641 6.78271C21.7634 6.78271 21.9608 6.82201 22.145 6.89836C22.3292 6.9747 22.4966 7.08659 22.6375 7.22764C22.7783 7.3687 22.89 7.53614 22.9662 7.72039C23.0423 7.90464 23.0814 8.10209 23.0812 8.30147Z" fill="white"/>
</g>
</g>
<defs>
<radialGradient id="paint0_radial_1118_866" cx="0" cy="0" r="1" gradientUnits="userSpaceOnUse" gradientTransform="translate(4.83281 29.5531) scale(36.1484)">
<stop stop-color="#FEC053"/>
<stop offset="0.33" stop-color="#F2203E"/>
<stop offset="0.65" stop-color="#B729A8"/>
<stop offset="1" stop-color="#5342D6"/>
</radialGradient>
<clipPath id="clip0_1118_866">
<rect width="30" height="30" fill="white"/>
</clipPath>
</defs>
</svg>
