<?xml version="1.0" encoding="utf-8"?>
<!-- Generator: Adobe Illustrator 23.1.1, SVG Export Plug-In . SVG Version: 6.00 Build 0)  -->
<svg version="1.1" id="Layer_1" xmlns="http://www.w3.org/2000/svg" xmlns:xlink="http://www.w3.org/1999/xlink" x="0px" y="0px"
	 viewBox="0 0 50 50" style="enable-background:new 0 0 50 50;" xml:space="preserve">
<style type="text/css">
	.st0{fill:#B4B4B4;}
	.st1{fill:#FFFFFF;}
</style>
<g>
	<path id="lozenge-path" class="st0" d="M49,13c-0.6-2.2-2.3-3.8-4.4-4.4C40.6,7.5,25,7.5,25,7.5s-15.6,0-19.5,1
		C3.3,9.1,1.6,10.8,1,13c-1,3.9-1,12-1,12s0,8.1,1,12c0.6,2.2,2.3,3.8,4.4,4.4C9.4,42.5,25,42.5,25,42.5s15.6,0,19.5-1
		c2.2-0.6,3.8-2.3,4.4-4.4c1-3.9,1-12,1-12S50,16.9,49,13z"/>
	<polygon id="play-polygon" class="st1" points="20,32.5 33,25 20,17.5 	"/>
</g>
</svg>
