<svg width="90" height="88" viewBox="0 0 90 88" fill="none" xmlns="http://www.w3.org/2000/svg">
<path d="M70.59 0H19.41C8.70857 0 0 8.74289 0 19.4865V87.1277H70.59C81.2914 87.1277 90 78.3848 90 67.6412V19.4865C90 8.74289 81.2914 0 70.59 0ZM84.2186 67.6412C84.2186 75.1836 78.1071 81.3235 70.59 81.3235H5.78143V19.4865C5.78143 11.944 11.8929 5.80421 19.41 5.80421H70.59C78.1029 5.80421 84.2186 11.9397 84.2186 19.4865V67.6412Z" fill="white"/>
<path d="M47.5072 37.3295C45.2101 35.1007 42.1629 33.9863 38.3615 33.9863C36.2529 33.9863 34.3415 34.3176 32.6315 34.9802C30.9172 35.6428 29.4772 36.5937 28.3115 37.8415V22.5371H21.2529V64.595H28.3115V49.2907C28.3115 46.3434 29.0658 44.0845 30.5701 42.5184C32.0744 40.9522 34.1272 40.1649 36.7244 40.1649C39.0215 40.1649 40.7915 40.8361 42.0301 42.1785C43.2729 43.5209 43.8944 45.513 43.8944 48.1591V64.595H50.9529V47.2512C50.9529 42.8669 49.8044 39.5625 47.5072 37.3338V37.3295Z" fill="white"/>
<path d="M68.7257 42.1699H58.8472V46.3434H63.4243V60.5291H58.8472V64.5908H73.2857V60.5291H68.7257V42.1699Z" fill="white"/>
</svg>
