<svg width="519" height="200" viewBox="0 0 519 200" fill="none" xmlns="http://www.w3.org/2000/svg">
<g clip-path="url(#clip0_999_1346)">
<mask id="mask0_999_1346" style="mask-type:luminance" maskUnits="userSpaceOnUse" x="0" y="0" width="519" height="200">
<path d="M519 0H0V200H519V0Z" fill="white"/>
</mask>
<g mask="url(#mask0_999_1346)">
<path d="M519 200H0V0H519V200ZM8.12849 191.893H510.872V8.13384H8.12849V191.893ZM286.862 128.482C286.264 128.727 285.639 128.972 284.959 129.162C282.513 129.924 278.217 130.277 275.607 130.277C269.328 130.277 264.461 128.591 260.982 125.218C257.556 121.844 255.816 117.002 255.816 110.718V54.1893H267.126V71.0011H286.835V80.3319H267.126V106.583C267.126 110.963 267.968 114.472 269.654 116.268C271.339 118.063 273.677 118.988 276.831 118.988C280.12 118.988 284.388 118.199 286.835 117.165V128.482H286.862ZM317.664 72.2797C314.075 74.0207 311.357 76.5506 309.399 79.815V71.0011H298.09V128.781H309.399V114.091V101.088C309.399 94.3417 311.139 89.7987 314.646 86.1534C318.153 82.5082 322.965 80.6583 329.082 80.6583C330.169 80.6583 331.039 80.6855 331.664 80.7671V69.4777C326.2 69.4505 321.524 70.3754 317.664 72.2797ZM388.672 71.0011V100.163C388.672 106.774 386.932 111.262 383.48 114.88C380.027 118.498 375.297 120.294 369.343 120.294C363.933 120.294 359.747 118.743 356.838 115.642C353.929 112.541 352.488 108.569 352.488 102.503V71.0011H341.179V103.836C341.179 112.813 343.571 118.988 348.356 123.585C353.141 128.183 359.72 130.495 368.038 130.495C372.443 130.495 376.493 129.625 380.245 127.829C383.969 126.061 386.987 123.558 389.27 120.348V128.808H400.009V71.0011H388.672ZM71.3078 71.0011H50.6739V128.754H71.8243V97.4157C71.8243 91.839 74.4613 87.4592 79.7625 87.4592C88.2716 87.4592 86.9667 94.8585 86.9667 100.762V128.754H108.117V113.819C113.174 123.64 123.395 130.332 135.167 130.332C150.173 130.332 162.651 119.45 165.125 105.141L172.493 128.781H193.045L200.412 100.326L207.698 128.781H228.25L246.356 71.0011H225.097L217.294 99.2655L209.764 71.0011H191.06L183.503 99.3471L175.728 71.0011H154.577L156.915 78.5093C151.397 72.9053 143.73 69.4233 135.248 69.4233C123.178 69.4233 112.766 76.4418 107.845 86.6159C106.785 78.7813 102.598 69.4233 86.9123 69.4233C81.4752 69.4233 75.4128 71.654 71.3078 75.5985V71.0011ZM123.531 99.8912C123.531 93.4168 128.778 88.1937 135.221 88.1937C141.691 88.1937 146.911 93.444 146.911 99.8912C146.911 106.366 141.664 111.589 135.221 111.589C128.778 111.589 123.531 106.338 123.531 99.8912ZM130.926 162.35H139.516V136.344H130.926V162.35ZM130.926 63.6561H139.516V37.6496H130.926V63.6561ZM468.081 103.727H416.918C417.625 109.032 420.072 112.704 424.231 115.914C428.39 119.124 433.583 120.729 439.754 120.729C447.284 120.729 453.347 118.308 457.968 113.466L464.275 120.511C461.421 123.694 457.86 126.115 453.619 127.775C449.378 129.434 444.647 130.277 439.401 130.277C432.74 130.277 426.841 128.972 421.676 126.36C417.353 124.184 413.873 121.246 411.209 117.601V81.9369C413.765 78.4004 416.973 75.4897 420.914 73.3406C425.699 70.7291 431.136 69.4233 437.144 69.4233C443.179 69.4233 448.535 70.7291 453.265 73.3406C457.968 75.9521 461.666 79.5974 464.33 84.3036C466.994 89.0098 468.326 94.3689 468.326 100.435C468.326 101.279 468.245 102.367 468.081 103.727ZM457.126 94.3145C456.256 89.9619 454.19 86.3438 450.9 83.4603C447.203 80.2503 442.636 78.6453 437.171 78.6453C431.707 78.6453 427.113 80.2231 423.443 83.4059C420.153 86.2622 418.087 89.8803 417.217 94.3145H457.126Z" fill="white"/>
</g>
</g>
<defs>
<clipPath id="clip0_999_1346">
<rect width="519" height="200" fill="white"/>
</clipPath>
</defs>
</svg>
