<svg width="52" height="51" viewBox="0 0 52 51" fill="none" xmlns="http://www.w3.org/2000/svg">
<path fill-rule="evenodd" clip-rule="evenodd" d="M26 1C39.8071 1 51 11.8198 51 25.1667C51 38.5135 39.8071 49.3333 26 49.3333C20.7645 49.3333 15.905 47.7776 11.889 45.1184L2.875 47.8229L5.64353 39.1987C2.72012 35.2428 1 30.3989 1 25.1667C1 11.8198 12.1929 1 26 1Z" fill="white" stroke="#0B0B0B" stroke-width="1.47059"/>
<path fill-rule="evenodd" clip-rule="evenodd" d="M20.6977 15.8063C20.0887 14.8945 19.7904 14.9008 18.2026 15.1272C16.6148 15.3536 13.8928 18.2965 15.4806 22.3713C17.0684 26.4461 21.1514 31.8792 29.0905 34.5958C31.3588 35.3503 33.4003 35.0485 35.2149 33.6902C36.4247 32.9356 36.8784 31.6528 36.5759 29.8418L32.493 27.578C31.4344 27.2762 30.6783 27.4271 30.2247 28.0308C29.771 28.6344 29.3929 29.2381 29.0905 29.8418C28.6368 30.4455 27.9563 30.4455 27.049 29.8418C25.688 28.9363 22.9661 27.578 20.6977 23.9559C20.6977 23.6541 21.0002 23.0504 21.6051 22.1449C22.21 21.5412 22.5124 21.0885 22.5124 20.7866C22.5124 20.3339 21.3068 16.7181 20.6977 15.8063Z" fill="white" stroke="#0B0B0B" stroke-width="1.25"/>
</svg>
