<svg width="42" height="41" viewBox="0 0 42 41" fill="none" xmlns="http://www.w3.org/2000/svg">
<g id="Group 3">
<path id="Path 6" fill-rule="evenodd" clip-rule="evenodd" d="M26 13C26 10 33 2.79546e-05 35 1.00003C37 2.00003 38 3.00003 38 3.00003C38 3.00003 43 7.50003 40 14C37 20.5 29 31 17 38C17 38 12 41 8.20786 40C2.51407 38.4986 1.32867 35.161 1.32867 34.166C1.32867 32.166 12 24 14 26.4977C16 28.9953 18 32 27 22C27 22 30.8758 18 29 17C27.1243 16 26 16 26 13Z" fill="white"/>
<g id="phone-call">
<path id="Shape" fill-rule="evenodd" clip-rule="evenodd" d="M31.4151 1.58827C31.9108 0.727108 32.7603 0.158344 33.7455 0.0279961C34.7308 -0.102264 35.6989 0.226086 36.4016 0.928741L39.4037 3.93073C40.4675 4.99467 41 6.50669 41 8.37406C41.0001 10.1844 40.4998 12.3286 39.4985 14.7229C37.5426 19.4001 33.8925 24.5489 29.2208 29.2208C24.5489 33.8925 19.4002 37.5426 14.7231 39.4985C9.85888 41.5326 6.02621 41.499 3.93091 39.4038L0.928853 36.4018C0.226112 35.699 -0.102502 34.7309 0.0281114 33.7456C0.158459 32.7604 0.727134 31.911 1.58838 31.4151L11.7032 25.5913C12.9423 24.8778 14.5137 25.0858 15.5247 26.0968L17.517 28.0891C18.0473 28.6194 18.886 28.6663 19.4677 28.1981C21.0385 26.9342 22.5848 25.5433 24.0641 24.0641C25.5434 22.5848 26.9343 21.0383 28.1981 19.4677C28.6662 18.886 28.6193 18.0473 28.0891 17.5171L26.0968 15.5248C25.0857 14.5136 24.878 12.942 25.5913 11.7032L31.4151 1.58827ZM32.5661 2.25099L26.7424 12.3659C26.3281 13.0854 26.4488 13.9983 27.036 14.5855L27.5819 15.1314L35.2538 1.68887C34.8728 1.40603 34.3999 1.28127 33.9197 1.34484C33.3475 1.42047 32.8541 1.75076 32.5661 2.25099ZM1.34495 33.9198C1.42067 33.3475 1.75096 32.8542 2.25119 32.5662L12.366 26.7425C13.0857 26.3281 13.9985 26.4488 14.5856 27.036L15.087 27.5375L1.68898 35.2516C1.45547 34.9362 1.32866 34.5591 1.32866 34.1659C1.32866 34.0844 1.33406 34.0021 1.34495 33.9198ZM38.273 14.2105C40.0592 9.93912 40.129 6.53467 38.4644 4.87008L36.2382 2.64389L28.5556 16.1051L29.0282 16.5778C30.0392 17.5889 30.1272 19.1892 29.233 20.3005C27.9393 21.9082 26.5162 23.4904 25.0033 25.0034C23.4905 26.5162 21.9083 27.9393 20.3006 29.233C19.1891 30.1272 17.5888 30.0392 16.5779 29.0283L16.0598 28.5102L2.64143 36.2359L4.87009 38.4645C6.53476 40.1291 9.93919 40.0594 14.2106 38.273C18.732 36.3823 23.7291 32.8338 28.2815 28.2814C32.8338 23.729 36.3822 18.7319 38.273 14.2105Z" fill="black"/>
</g>
</g>
</svg>
